<?xml version="1.0" encoding="UTF-8" standalone="no"?>
<!-- Created with Inkscape (http://www.inkscape.org/) -->

<svg
   width="100mm"
   height="100mm"
   viewBox="0 0 100 100"
   version="1.1"
   id="svg1"
   xml:space="preserve"
   inkscape:version="1.4 (86a8ad7, 2024-10-11)"
   sodipodi:docname="actionbot_divine_eye.svg"
   xmlns:inkscape="http://www.inkscape.org/namespaces/inkscape"
   xmlns:sodipodi="http://sodipodi.sourceforge.net/DTD/sodipodi-0.dtd"
   xmlns="http://www.w3.org/2000/svg"
   xmlns:svg="http://www.w3.org/2000/svg"><sodipodi:namedview
     id="namedview1"
     pagecolor="#000000"
     bordercolor="#000000"
     borderopacity="0.25"
     inkscape:showpageshadow="2"
     inkscape:pageopacity="0.0"
     inkscape:pagecheckerboard="0"
     inkscape:deskcolor="#d1d1d1"
     inkscape:document-units="mm"
     inkscape:zoom="1.9653219"
     inkscape:cx="197.93195"
     inkscape:cy="245.50685"
     inkscape:window-width="2560"
     inkscape:window-height="1417"
     inkscape:window-x="1432"
     inkscape:window-y="1432"
     inkscape:window-maximized="1"
     inkscape:current-layer="svg1" /><defs
     id="defs1"><marker
       id="DistanceX"
       orient="auto"
       refX="0.0"
       refY="0.0"
       style="overflow:visible"><path
         d="M 3,-3 L -3,3 M 0,-5 L  0,5"
         style="stroke:#000000; stroke-width:0.5"
         id="path1" /></marker><pattern
       id="Hatch"
       patternUnits="userSpaceOnUse"
       width="8"
       height="8"
       x="0"
       y="0"><path
         d="M8 4 l-4,4"
         stroke="#000000"
         stroke-width="0.25"
         linecap="square"
         id="path2" /><path
         d="M6 2 l-4,4"
         stroke="#000000"
         stroke-width="0.25"
         linecap="square"
         id="path3" /><path
         d="M4 0 l-4,4"
         stroke="#000000"
         stroke-width="0.25"
         linecap="square"
         id="path4" /></pattern><symbol
       id="*Model_Space" /><symbol
       id="*Paper_Space" /><symbol
       id="*Paper_Space0" /><symbol
       id="*Paper_Space4" /><symbol
       id="*Paper_Space5" /><symbol
       id="*Paper_Space6" /><symbol
       id="*Paper_Space7" /><symbol
       id="*Paper_Space8" /></defs><g
     id="g1"
     transform="matrix(3.9022785,0,0,3.9022785,-145.11393,-145.11465)"
     style="stroke:#ffffff;stroke-width:0.127701;stroke-dasharray:none;stroke-opacity:1"><path
       id="path185"
       style="fill:none;stroke:#ffffff;stroke-width:1.54576;stroke-dasharray:none;stroke-opacity:1"
       d="m -91.9776,1160.62 -49.9534,20.69 m 68.115,-9.47 -53.919,36.03 m 69.0573,-26.67 -49.9523,49.95 m 64.1101,-42 -40.8298,61.1 m 55.6006,-55.91 -29.0408,70.11 m 43.9352,-67.25 -15.1161,75.99 M 0,1198.11 v 78.04 m 14.8547,-78.95 15.1161,75.99 m -0.2217,-78.85 29.0408,70.11 m -14.27,-75.3 40.8298,61.1 m -11.5337,-78.41 53.919,36.03 m -69.0573,-26.67 49.9523,49.95 m -16.6524,-70.53 49.9534,20.69 m -25.712,-35.67 34.455,6.85 m -34.455,-53.09 34.455,-6.85 m -58.6964,-8.13 49.9534,-20.69 m -68.115,9.47 53.919,-36.03 m -83.2151,18.72 40.8298,-61.105 m -26.672,69.055 49.9523,-49.95 M 29.7491,1050.7 58.7899,980.588 M 14.8547,1047.84 29.9708,971.846 M 0,1046.93 v -78.036 m -14.8547,78.946 -15.1161,-75.994 m 0.2217,78.854 -29.0408,-70.112 m 14.27,75.302 -40.8298,-61.105 m 26.672,69.055 -49.9523,-49.95 m 34.814,59.31 -53.919,-36.03 m 35.7574,47.25 -49.9534,-20.69 m 25.712,35.67 -34.455,-6.85 m 34.455,53.09 -34.455,6.85"
       inkscape:label="beams"
       transform="matrix(0.08261398,0,0,0.08261398,50.000001,-42.735825)" /><path
       id="path70"
       style="display:inline;fill:#ffffff;fill-opacity:1;stroke:#ffffff;stroke-width:1.54576;stroke-dasharray:none;stroke-opacity:1"
       d="m 18.897638,1122.5197 a 18.897638,18.897638 0 0 0 -37.795276,0 18.897638,18.897638 0 0 0 37.795276,0 z m 37.795275,0 a 56.692913,56.692913 0 0 0 -113.385826,0 56.692913,56.692913 0 0 0 113.385826,0 z M -53.450596,1184.4289 -153.625,1122.52 -53.450595,1060.6108 c 29.519951,-18.2425 77.381237,-18.2425 106.901189,0 L 153.625,1122.52 53.450595,1184.4289 c -29.51995,18.2421 -77.381241,18.2421 -106.901191,0 z"
       inkscape:label="eye"
       transform="matrix(0.08261398,0,0,0.08261398,50.000001,-42.735825)" /></g></svg>
