<?xml version="1.0" encoding="UTF-8" standalone="no"?>
<!-- Created with Inkscape (http://www.inkscape.org/) -->

<svg
   width="100mm"
   height="100mm"
   viewBox="0 0 100 100"
   version="1.1"
   id="svg1"
   xml:space="preserve"
   sodipodi:docname="actionbot_27.svg"
   inkscape:version="1.4 (86a8ad7, 2024-10-11)"
   xmlns:inkscape="http://www.inkscape.org/namespaces/inkscape"
   xmlns:sodipodi="http://sodipodi.sourceforge.net/DTD/sodipodi-0.dtd"
   xmlns="http://www.w3.org/2000/svg"
   xmlns:svg="http://www.w3.org/2000/svg"><sodipodi:namedview
     id="namedview1"
     pagecolor="#808080"
     bordercolor="#000000"
     borderopacity="0.25"
     inkscape:showpageshadow="2"
     inkscape:pageopacity="0.0"
     inkscape:pagecheckerboard="0"
     inkscape:deskcolor="#d1d1d1"
     inkscape:document-units="mm"
     inkscape:zoom="2.7793849"
     inkscape:cx="182.77425"
     inkscape:cy="187.27165"
     inkscape:window-width="2560"
     inkscape:window-height="1417"
     inkscape:window-x="1432"
     inkscape:window-y="1432"
     inkscape:window-maximized="1"
     inkscape:current-layer="g1" /><defs
     id="defs1"><marker
       id="DistanceX"
       orient="auto"
       refX="0.0"
       refY="0.0"
       style="overflow:visible"><path
         d="M 3,-3 L -3,3 M 0,-5 L  0,5"
         style="stroke:#000000; stroke-width:0.5"
         id="path1" /></marker><pattern
       id="Hatch"
       patternUnits="userSpaceOnUse"
       width="8"
       height="8"
       x="0"
       y="0"><path
         d="M8 4 l-4,4"
         stroke="#000000"
         stroke-width="0.25"
         linecap="square"
         id="path2" /><path
         d="M6 2 l-4,4"
         stroke="#000000"
         stroke-width="0.25"
         linecap="square"
         id="path3" /><path
         d="M4 0 l-4,4"
         stroke="#000000"
         stroke-width="0.25"
         linecap="square"
         id="path4" /></pattern><symbol
       id="*Model_Space" /><symbol
       id="*Paper_Space" /><symbol
       id="*Paper_Space0" /><symbol
       id="*Paper_Space4" /><symbol
       id="*Paper_Space5" /><symbol
       id="*Paper_Space6" /><symbol
       id="*Paper_Space7" /><symbol
       id="*Paper_Space8" /></defs><g
     inkscape:label="Layer 1"
     inkscape:groupmode="layer"
     id="layer1"><g
       id="g1"
       transform="matrix(0.08261398,0,0,0.08261398,50,-42.735847)"><g
         inkscape:label="4 Bottom"
         id="g50"
         style="display:inline;stroke:#ffffff;stroke-opacity:1;stroke-width:6.05224443;stroke-dasharray:none;fill:#ffffff;fill-opacity:1"
         transform="translate(6.556598e-6)"><path
           style="fill:#ffffff;stroke:#ffffff;stroke-opacity:1;stroke-width:6.05224443;stroke-dasharray:none;fill-opacity:1"
           d="m 206.11691,1581.1725 c -10.43695,0 -18.89771,-8.4582 -18.89773,-18.8951 -2e-5,-20.766 8.54296,-40.6176 23.62303,-54.8956 L 162.568,1384.25 53.450594,1451.6804 c -29.519953,18.2436 -77.381243,18.2436 -106.901192,0 L -162.568,1384.25 l -48.27421,123.1318 c 15.08007,14.278 23.62305,34.1296 23.62303,54.8956 -2e-5,10.4369 -8.46078,18.8976 -18.89773,18.8951 h -113.38592 c -10.43668,0 -18.89743,-8.4582 -18.89745,-18.8951 -2e-5,-41.4298 33.3487,-75.1398 74.77619,-75.5868 L -211.586,1353.95 -320.70378,1286.5192 c -29.51979,-18.2441 -29.51979,-47.8225 0,-66.0675 l 267.253189,-165.1611 c 29.519954,-18.2428 77.38124,-18.2428 106.901188,0 l 267.253173,165.1611 c 29.51979,18.245 29.51979,47.8234 0,66.0675 L 211.586,1353.95 l 52.03809,132.7406 c 41.42749,0.447 74.77621,34.157 74.77619,75.5868 -2e-5,10.4369 -8.46077,18.8976 -18.89746,18.8951 z"
           id="path33"
           sodipodi:nodetypes="ccccccccccccccccccccccccc" /></g></g></g></svg>
