<?xml version="1.0" encoding="UTF-8" standalone="no"?>
<!-- Created with Inkscape (http://www.inkscape.org/) -->

<svg
   width="100mm"
   height="100mm"
   viewBox="0 0 100 100"
   version="1.1"
   id="svg1"
   xml:space="preserve"
   sodipodi:docname="actionbot_27.svg"
   inkscape:version="1.4 (86a8ad7, 2024-10-11)"
   xmlns:inkscape="http://www.inkscape.org/namespaces/inkscape"
   xmlns:sodipodi="http://sodipodi.sourceforge.net/DTD/sodipodi-0.dtd"
   xmlns="http://www.w3.org/2000/svg"
   xmlns:svg="http://www.w3.org/2000/svg"><sodipodi:namedview
     id="namedview1"
     pagecolor="#808080"
     bordercolor="#000000"
     borderopacity="0.25"
     inkscape:showpageshadow="2"
     inkscape:pageopacity="0.0"
     inkscape:pagecheckerboard="0"
     inkscape:deskcolor="#d1d1d1"
     inkscape:document-units="mm"
     inkscape:zoom="2.7793849"
     inkscape:cx="182.77425"
     inkscape:cy="187.27165"
     inkscape:window-width="2560"
     inkscape:window-height="1417"
     inkscape:window-x="1432"
     inkscape:window-y="1432"
     inkscape:window-maximized="1"
     inkscape:current-layer="g1" /><defs
     id="defs1"><marker
       id="DistanceX"
       orient="auto"
       refX="0.0"
       refY="0.0"
       style="overflow:visible"><path
         d="M 3,-3 L -3,3 M 0,-5 L  0,5"
         style="stroke:#000000; stroke-width:0.5"
         id="path1" /></marker><pattern
       id="Hatch"
       patternUnits="userSpaceOnUse"
       width="8"
       height="8"
       x="0"
       y="0"><path
         d="M8 4 l-4,4"
         stroke="#000000"
         stroke-width="0.25"
         linecap="square"
         id="path2" /><path
         d="M6 2 l-4,4"
         stroke="#000000"
         stroke-width="0.25"
         linecap="square"
         id="path3" /><path
         d="M4 0 l-4,4"
         stroke="#000000"
         stroke-width="0.25"
         linecap="square"
         id="path4" /></pattern><symbol
       id="*Model_Space" /><symbol
       id="*Paper_Space" /><symbol
       id="*Paper_Space0" /><symbol
       id="*Paper_Space4" /><symbol
       id="*Paper_Space5" /><symbol
       id="*Paper_Space6" /><symbol
       id="*Paper_Space7" /><symbol
       id="*Paper_Space8" /></defs><g
     inkscape:label="Layer 1"
     inkscape:groupmode="layer"
     id="layer1"><g
       id="g1"
       transform="matrix(0.08261398,0,0,0.08261398,50,-42.735847)"><g
         inkscape:label="2 Top"
         id="g182"
         style="display:inline;stroke:#ffffff;stroke-opacity:1;stroke-width:6.05224443;stroke-dasharray:none"><path
           d="m -53.450592,1189.7491 c 29.519909,18.2425 77.3812,18.2425 106.901191,10e-5 L 320.70377,1024.588 c 29.51969,-18.2454 29.51969,-47.82368 0,-66.067 L 53.450595,793.35883 C 46.281972,788.92846 37.744594,785.43468 28.346457,783.08521 V 719.09993 C 61.886459,705.53233 81.109899,670.09967 74.198221,634.59067 67.286633,599.08214 36.179125,573.45868 0,573.45868 c -36.179125,0 -67.286633,25.62346 -74.198221,61.13199 -6.911678,35.509 12.311762,70.94166 45.851764,84.50926 v 63.98528 c -9.398136,2.34947 -17.935513,5.84325 -25.104137,10.27362 L -320.70377,958.521 c -29.51969,18.24332 -29.51969,47.8216 0,66.067 z"
           style="fill:#ffffff;stroke:#ffffff;stroke-opacity:1;stroke-width:6.05224443;stroke-dasharray:none;fill-opacity:1"
           id="path177"
           sodipodi:nodetypes="cccccccssscccccc" /></g></g></g></svg>
