<?xml version="1.0" encoding="UTF-8" standalone="no"?>
<!-- Created with Inkscape (http://www.inkscape.org/) -->

<svg
   width="100mm"
   height="100mm"
   viewBox="0 0 100 100"
   version="1.1"
   id="svg1"
   xml:space="preserve"
   sodipodi:docname="actionbot_27_logo.svg"
   inkscape:version="1.4 (86a8ad7, 2024-10-11)"
   xmlns:inkscape="http://www.inkscape.org/namespaces/inkscape"
   xmlns:sodipodi="http://sodipodi.sourceforge.net/DTD/sodipodi-0.dtd"
   xmlns="http://www.w3.org/2000/svg"
   xmlns:svg="http://www.w3.org/2000/svg"><sodipodi:namedview
     id="namedview1"
     pagecolor="#808080"
     bordercolor="#000000"
     borderopacity="0.25"
     inkscape:showpageshadow="2"
     inkscape:pageopacity="0.0"
     inkscape:pagecheckerboard="0"
     inkscape:deskcolor="#d1d1d1"
     inkscape:document-units="mm"
     inkscape:zoom="2.7793849"
     inkscape:cx="182.77425"
     inkscape:cy="187.27165"
     inkscape:window-width="2560"
     inkscape:window-height="1417"
     inkscape:window-x="1432"
     inkscape:window-y="1432"
     inkscape:window-maximized="1"
     inkscape:current-layer="g1" /><defs
     id="defs1"><marker
       id="DistanceX"
       orient="auto"
       refX="0.0"
       refY="0.0"
       style="overflow:visible"><path
         d="M 3,-3 L -3,3 M 0,-5 L  0,5"
         style="stroke:#000000; stroke-width:0.5"
         id="path1" /></marker><pattern
       id="Hatch"
       patternUnits="userSpaceOnUse"
       width="8"
       height="8"
       x="0"
       y="0"><path
         d="M8 4 l-4,4"
         stroke="#000000"
         stroke-width="0.25"
         linecap="square"
         id="path2" /><path
         d="M6 2 l-4,4"
         stroke="#000000"
         stroke-width="0.25"
         linecap="square"
         id="path3" /><path
         d="M4 0 l-4,4"
         stroke="#000000"
         stroke-width="0.25"
         linecap="square"
         id="path4" /></pattern><symbol
       id="*Model_Space" /><symbol
       id="*Paper_Space" /><symbol
       id="*Paper_Space0" /><symbol
       id="*Paper_Space4" /><symbol
       id="*Paper_Space5" /><symbol
       id="*Paper_Space6" /><symbol
       id="*Paper_Space7" /><symbol
       id="*Paper_Space8" /></defs><g
     inkscape:label="Layer 1"
     inkscape:groupmode="layer"
     id="layer1"><g
       id="g1"
       transform="matrix(0.08261398,0,0,0.08261398,50,-42.735847)"><g
         inkscape:label="6 Rays"
         id="g134"
         style="display:inline;stroke:#ffffff;stroke-opacity:1;stroke-width:6.05224443;stroke-dasharray:none"><path
           style="fill:none;stroke:#ffffff;stroke-opacity:1;stroke-width:6.05224443;stroke-dasharray:none"
           d="M 435.719,942.039 558.693,891.102"
           id="path54" /><path
           style="fill:none;stroke:#ffffff;stroke-opacity:1;stroke-width:6.05224443;stroke-dasharray:none"
           d="m 524.805,963.322 53.88,-16.345"
           id="path55" /><path
           style="fill:none;stroke:#ffffff;stroke-opacity:1;stroke-width:6.05224443;stroke-dasharray:none"
           d="m 511.347,1020.81 81.758,-16.27"
           id="path56" /><path
           style="fill:none;stroke:#ffffff;stroke-opacity:1;stroke-width:6.05224443;stroke-dasharray:none"
           d="m 447.143,1078.48 154.669,-15.23"
           id="path57" /><path
           style="fill:none;stroke:#ffffff;stroke-opacity:1;stroke-width:6.05224443;stroke-dasharray:none"
           d="m 386.937,1084.41 v 0"
           id="path58" /><path
           style="fill:none;stroke:#ffffff;stroke-opacity:1;stroke-width:6.05224443;stroke-dasharray:none"
           d="m 283.05,1178.82 310.055,61.68"
           id="path59" /><path
           style="fill:none;stroke:#ffffff;stroke-opacity:1;stroke-width:6.05224443;stroke-dasharray:none"
           d="m 342.317,1264.31 216.376,89.63"
           id="path60" /><path
           style="fill:none;stroke:#ffffff;stroke-opacity:1;stroke-width:6.05224443;stroke-dasharray:none"
           d="m 314.265,1290.5 219.054,117.08"
           id="path61" /><path
           style="fill:none;stroke:#ffffff;stroke-opacity:1;stroke-width:6.05224443;stroke-dasharray:none"
           d="M 281.604,1310.68 502.81,1458.49"
           id="path62" /><path
           style="fill:none;stroke:#ffffff;stroke-opacity:1;stroke-width:6.05224443;stroke-dasharray:none"
           d="m 251.754,1329.13 215.704,177.02"
           id="path63" /><path
           style="fill:none;stroke:#ffffff;stroke-opacity:1;stroke-width:6.05224443;stroke-dasharray:none"
           d="m 223.853,1346.37 203.752,203.75"
           id="path64" /><path
           style="fill:none;stroke:#ffffff;stroke-opacity:1;stroke-width:6.05224443;stroke-dasharray:none"
           d="m 306.464,1581.17 29.503,44.16"
           id="path65" /><path
           style="fill:none;stroke:#ffffff;stroke-opacity:1;stroke-width:6.05224443;stroke-dasharray:none"
           d="m 119.449,1410.89 111.969,270.32"
           id="path66" /><path
           style="fill:none;stroke:#ffffff;stroke-opacity:1;stroke-width:6.05224443;stroke-dasharray:none"
           d="m 0,1465.36 v 261.88"
           id="path67" /><path
           style="fill:none;stroke:#ffffff;stroke-opacity:1;stroke-width:6.05224443;stroke-dasharray:none"
           d="M 92.5247,1427.53 175.542,1701.2"
           id="path68" /><path
           style="fill:none;stroke:#ffffff;stroke-opacity:1;stroke-width:6.05224443;stroke-dasharray:none"
           d="m 64.158,1445.06 53.818,270.56"
           id="path69" /><path
           style="fill:none;stroke:#ffffff;stroke-opacity:1;stroke-width:6.05224443;stroke-dasharray:none"
           d="m 33.2967,1460.59 25.9767,263.74"
           id="path70" /><path
           style="fill:none;stroke:#ffffff;stroke-opacity:1;stroke-width:6.05224443;stroke-dasharray:none"
           d="m -33.2967,1460.59 -25.9767,263.74"
           id="path71" /><path
           style="fill:none;stroke:#ffffff;stroke-opacity:1;stroke-width:6.05224443;stroke-dasharray:none"
           d="m -64.158,1445.06 -53.818,270.56"
           id="path72" /><path
           style="fill:none;stroke:#ffffff;stroke-opacity:1;stroke-width:6.05224443;stroke-dasharray:none"
           d="M -92.5247,1427.53 -175.542,1701.2"
           id="path73" /><path
           style="fill:none;stroke:#ffffff;stroke-opacity:1;stroke-width:6.05224443;stroke-dasharray:none"
           d="m -119.449,1410.89 -111.969,270.32"
           id="path74" /><path
           style="fill:none;stroke:#ffffff;stroke-opacity:1;stroke-width:6.05224443;stroke-dasharray:none"
           d="m -306.464,1581.17 -29.503,44.16"
           id="path75" /><path
           style="fill:none;stroke:#ffffff;stroke-opacity:1;stroke-width:6.05224443;stroke-dasharray:none"
           d="m -223.853,1346.37 -203.752,203.75"
           id="path76" /><path
           style="fill:none;stroke:#ffffff;stroke-opacity:1;stroke-width:6.05224443;stroke-dasharray:none"
           d="m -251.754,1329.13 -215.704,177.02"
           id="path77" /><path
           style="fill:none;stroke:#ffffff;stroke-opacity:1;stroke-width:6.05224443;stroke-dasharray:none"
           d="M -281.604,1310.68 -502.81,1458.49"
           id="path78" /><path
           style="fill:none;stroke:#ffffff;stroke-opacity:1;stroke-width:6.05224443;stroke-dasharray:none"
           d="m -314.265,1290.5 -219.054,117.08"
           id="path79" /><path
           style="fill:none;stroke:#ffffff;stroke-opacity:1;stroke-width:6.05224443;stroke-dasharray:none"
           d="m -340.992,1263.76 -217.701,90.18"
           id="path80" /><path
           style="fill:none;stroke:#ffffff;stroke-opacity:1;stroke-width:6.05224443;stroke-dasharray:none"
           d="m -283.05,1178.82 -310.055,61.68"
           id="path81" /><path
           style="fill:none;stroke:#ffffff;stroke-opacity:1;stroke-width:6.05224443;stroke-dasharray:none"
           d="M -314.265,954.542 -533.319,837.455"
           id="path82" /><path
           style="fill:none;stroke:#ffffff;stroke-opacity:1;stroke-width:6.05224443;stroke-dasharray:none"
           d="M -281.604,934.358 -502.81,786.553"
           id="path83" /><path
           style="fill:none;stroke:#ffffff;stroke-opacity:1;stroke-width:6.05224443;stroke-dasharray:none"
           d="M -251.754,915.91 -467.458,738.887"
           id="path84" /><path
           style="fill:none;stroke:#ffffff;stroke-opacity:1;stroke-width:6.05224443;stroke-dasharray:none"
           d="m -524.805,963.322 -53.88,-16.345"
           id="path85" /><path
           style="fill:none;stroke:#ffffff;stroke-opacity:1;stroke-width:6.05224443;stroke-dasharray:none"
           d="m -511.347,1020.81 -81.758,-16.27"
           id="path86" /><path
           style="fill:none;stroke:#ffffff;stroke-opacity:1;stroke-width:6.05224443;stroke-dasharray:none"
           d="m -447.143,1078.48 -154.669,-15.23"
           id="path87" /><path
           style="fill:none;stroke:#ffffff;stroke-opacity:1;stroke-width:6.05224443;stroke-dasharray:none"
           d="M -435.719,942.039 -558.693,891.102"
           id="path88" /><path
           style="fill:none;stroke:#ffffff;stroke-opacity:1;stroke-width:6.05224443;stroke-dasharray:none"
           d="M -223.853,898.667 -427.605,694.915"
           id="path89" /><path
           style="fill:none;stroke:#ffffff;stroke-opacity:1;stroke-width:6.05224443;stroke-dasharray:none"
           d="M -197.219,882.208 -383.633,655.061"
           id="path90" /><path
           style="fill:none;stroke:#ffffff;stroke-opacity:1;stroke-width:6.05224443;stroke-dasharray:none"
           d="M -119.449,834.145 -231.418,563.827"
           id="path91" /><path
           style="fill:none;stroke:#ffffff;stroke-opacity:1;stroke-width:6.05224443;stroke-dasharray:none"
           d="M -171.282,866.178 -335.967,619.71"
           id="path92" /><path
           style="fill:none;stroke:#ffffff;stroke-opacity:1;stroke-width:6.05224443;stroke-dasharray:none"
           d="M -145.525,850.261 -285.065,589.2"
           id="path93" /><path
           style="fill:none;stroke:#ffffff;stroke-opacity:1;stroke-width:6.05224443;stroke-dasharray:none"
           d="M -92.5247,817.506 -175.542,543.835"
           id="path94" /><path
           style="fill:none;stroke:#ffffff;stroke-opacity:1;stroke-width:6.05224443;stroke-dasharray:none"
           d="M -64.158,799.976 -117.976,529.415"
           id="path95" /><path
           style="fill:none;stroke:#ffffff;stroke-opacity:1;stroke-width:6.05224443;stroke-dasharray:none"
           d="m 0,573.435 v -55.64"
           id="path96" /><path
           style="fill:none;stroke:#ffffff;stroke-opacity:1;stroke-width:6.05224443;stroke-dasharray:none"
           d="M 64.158,799.976 117.976,529.415"
           id="path97" /><path
           style="fill:none;stroke:#ffffff;stroke-opacity:1;stroke-width:6.05224443;stroke-dasharray:none"
           d="M 92.5247,817.506 175.542,543.835"
           id="path98" /><path
           style="fill:none;stroke:#ffffff;stroke-opacity:1;stroke-width:6.05224443;stroke-dasharray:none"
           d="M 119.449,834.145 231.418,563.827"
           id="path99" /><path
           style="fill:none;stroke:#ffffff;stroke-opacity:1;stroke-width:6.05224443;stroke-dasharray:none"
           d="M 145.525,850.261 285.065,589.2"
           id="path100" /><path
           style="fill:none;stroke:#ffffff;stroke-opacity:1;stroke-width:6.05224443;stroke-dasharray:none"
           d="M 171.282,866.178 335.967,619.71"
           id="path101" /><path
           style="fill:none;stroke:#ffffff;stroke-opacity:1;stroke-width:6.05224443;stroke-dasharray:none"
           d="M 197.219,882.208 383.633,655.061"
           id="path102" /><path
           style="fill:none;stroke:#ffffff;stroke-opacity:1;stroke-width:6.05224443;stroke-dasharray:none"
           d="M 251.754,915.91 467.458,738.887"
           id="path103" /><path
           style="fill:none;stroke:#ffffff;stroke-opacity:1;stroke-width:6.05224443;stroke-dasharray:none"
           d="M 281.604,934.358 502.81,786.553"
           id="path104" /><path
           style="fill:none;stroke:#ffffff;stroke-opacity:1;stroke-width:6.05224443;stroke-dasharray:none"
           d="M 314.265,954.542 533.319,837.455"
           id="path105" /><path
           style="fill:none;stroke:#ffffff;stroke-opacity:1;stroke-width:6.05224443;stroke-dasharray:none"
           d="m 430.722,1036.84 v 0"
           id="path106" /><path
           style="fill:none;stroke:#ffffff;stroke-opacity:1;stroke-width:6.05224443;stroke-dasharray:none"
           d="m 392.466,959.955 v 0"
           id="path107" /><path
           style="fill:none;stroke:#ffffff;stroke-opacity:1;stroke-width:6.05224443;stroke-dasharray:none"
           d="m -52.0353,594.196 -7.2381,-73.489"
           id="path108" /><path
           style="fill:none;stroke:#ffffff;stroke-opacity:1;stroke-width:6.05224443;stroke-dasharray:none"
           d="m 52.0353,594.196 7.2381,-73.489"
           id="path109" /><path
           style="fill:none;stroke:#ffffff;stroke-opacity:1;stroke-width:6.05224443;stroke-dasharray:none"
           d="m -145.525,1394.78 -61.985,115.96"
           id="path110" /><path
           style="fill:none;stroke:#ffffff;stroke-opacity:1;stroke-width:6.05224443;stroke-dasharray:none"
           d="m -245.156,1581.17 -39.909,74.67"
           id="path111" /><path
           style="fill:none;stroke:#ffffff;stroke-opacity:1;stroke-width:6.05224443;stroke-dasharray:none"
           d="m 145.525,1394.78 61.985,115.96"
           id="path112" /><path
           style="fill:none;stroke:#ffffff;stroke-opacity:1;stroke-width:6.05224443;stroke-dasharray:none"
           d="m 245.156,1581.17 39.909,74.67"
           id="path113" /><path
           style="fill:none;stroke:#ffffff;stroke-opacity:1;stroke-width:6.05224443;stroke-dasharray:none"
           d="M -404.685,1122.52 H -604.724"
           id="path114" /><path
           style="fill:none;stroke:#ffffff;stroke-opacity:1;stroke-width:6.05224443;stroke-dasharray:none"
           d="m -283.05,1066.22 -119.984,-23.87"
           id="path115" /><path
           style="fill:none;stroke:#ffffff;stroke-opacity:1;stroke-width:6.05224443;stroke-dasharray:none"
           d="m -322.658,1090.74 -30.796,-3.03"
           id="path116" /><path
           style="fill:none;stroke:#ffffff;stroke-opacity:1;stroke-width:6.05224443;stroke-dasharray:none"
           d="m -437.274,989.874 -31.489,-9.552"
           id="path117" /><path
           style="fill:none;stroke:#ffffff;stroke-opacity:1;stroke-width:6.05224443;stroke-dasharray:none"
           d="m -340.992,981.276 -34.29,-14.203"
           id="path118" /><path
           style="fill:none;stroke:#ffffff;stroke-opacity:1;stroke-width:6.05224443;stroke-dasharray:none"
           d="m -329.424,1154.97 -272.388,26.82"
           id="path119" /><path
           style="fill:none;stroke:#ffffff;stroke-opacity:1;stroke-width:6.05224443;stroke-dasharray:none"
           d="m 322.658,1090.74 30.796,-3.03"
           id="path120" /><path
           style="fill:none;stroke:#ffffff;stroke-opacity:1;stroke-width:6.05224443;stroke-dasharray:none"
           d="M 404.685,1122.52 H 604.724"
           id="path121" /><path
           style="fill:none;stroke:#ffffff;stroke-opacity:1;stroke-width:6.05224443;stroke-dasharray:none"
           d="m 329.423,1154.97 272.389,26.82"
           id="path122" /><path
           style="fill:none;stroke:#ffffff;stroke-opacity:1;stroke-width:6.05224443;stroke-dasharray:none"
           d="m 283.05,1066.22 119.984,-23.87"
           id="path123" /><path
           style="fill:none;stroke:#ffffff;stroke-opacity:1;stroke-width:6.05224443;stroke-dasharray:none"
           d="m 340.992,981.276 34.29,-14.203"
           id="path124" /><path
           style="fill:none;stroke:#ffffff;stroke-opacity:1;stroke-width:6.05224443;stroke-dasharray:none"
           d="m 437.274,989.874 31.489,-9.552"
           id="path125" /><path
           style="fill:none;stroke:#ffffff;stroke-opacity:1;stroke-width:6.05224443;stroke-dasharray:none"
           d="m -33.2967,784.452 -7.0421,-71.499"
           id="path126" /><path
           style="fill:none;stroke:#ffffff;stroke-opacity:1;stroke-width:6.05224443;stroke-dasharray:none"
           d="m 33.2967,784.452 7.0421,-71.499"
           id="path127" /><path
           style="fill:none;stroke:#ffffff;stroke-opacity:1;stroke-width:6.05224443;stroke-dasharray:none"
           d="m -318.64,1025.86 -62.592,-18.99"
           id="path128" /><path
           style="fill:none;stroke:#ffffff;stroke-opacity:1;stroke-width:6.05224443;stroke-dasharray:none"
           d="M 223.853,898.667 427.605,694.915"
           id="path129" /><path
           style="fill:none;stroke:#ffffff;stroke-opacity:1;stroke-width:6.05224443;stroke-dasharray:none"
           d="m 318.64,1025.86 62.592,-18.99"
           id="path130" /><path
           style="fill:none;stroke:#ffffff;stroke-opacity:1;stroke-width:6.05224443;stroke-dasharray:none"
           d="m -318.64,1219.18 -260.045,78.88"
           id="path131" /><path
           style="fill:none;stroke:#ffffff;stroke-opacity:1;stroke-width:6.05224443;stroke-dasharray:none"
           d="m 318.64,1219.18 260.045,78.88"
           id="path132" /><path
           style="fill:none;stroke:#ffffff;stroke-opacity:1;stroke-width:6.05224443;stroke-dasharray:none"
           d="m 231.39,1404.47 152.243,185.51"
           id="path133" /><path
           style="fill:none;stroke:#ffffff;stroke-opacity:1;stroke-width:6.05224443;stroke-dasharray:none"
           d="m -231.39,1404.47 -152.243,185.51"
           id="path134" /></g><g
         inkscape:label="4 Bottom"
         id="g50"
         style="display:inline;stroke:#ffffff;stroke-opacity:1;stroke-width:6.05224443;stroke-dasharray:none"
         transform="translate(6.556598e-6)"><path
           style="fill:none;stroke:#ffffff;stroke-opacity:1;stroke-width:6.05224443;stroke-dasharray:none"
           d="m 206.11691,1581.1725 c -10.43695,0 -18.89771,-8.4582 -18.89773,-18.8951 -2e-5,-20.766 8.54296,-40.6176 23.62303,-54.8956 L 162.568,1384.25 53.450594,1451.6804 c -29.519953,18.2436 -77.381243,18.2436 -106.901192,0 L -162.568,1384.25 l -48.27421,123.1318 c 15.08007,14.278 23.62305,34.1296 23.62303,54.8956 -2e-5,10.4369 -8.46078,18.8976 -18.89773,18.8951 h -113.38592 c -10.43668,0 -18.89743,-8.4582 -18.89745,-18.8951 -2e-5,-41.4298 33.3487,-75.1398 74.77619,-75.5868 L -211.586,1353.95 -320.70378,1286.5192 c -29.51979,-18.2441 -29.51979,-47.8225 0,-66.0675 l 267.253189,-165.1611 c 29.519954,-18.2428 77.38124,-18.2428 106.901188,0 l 267.253173,165.1611 c 29.51979,18.245 29.51979,47.8234 0,66.0675 L 211.586,1353.95 l 52.03809,132.7406 c 41.42749,0.447 74.77621,34.157 74.77619,75.5868 -2e-5,10.4369 -8.46077,18.8976 -18.89746,18.8951 z"
           id="path33"
           sodipodi:nodetypes="ccccccccccccccccccccccccc" /></g><g
         inkscape:label="3 Middle"
         id="g26"
         style="display:inline;stroke:#ffffff;stroke-opacity:1;stroke-width:6.05224443;stroke-dasharray:none"
         transform="translate(6.556598e-6)"><path
           style="fill:none;stroke:#ffffff;stroke-opacity:1;stroke-width:6.05224443;stroke-dasharray:none"
           d="m 319.11923,1156.5306 c 63.04075,-7.738 117.46366,-47.835 143.53489,-105.7512 52.09962,-8.6168 79.53257,-66.64032 53.12879,-112.37283 -7.82895,-13.5551 -25.16333,-18.19831 -38.71968,-10.37154 -13.55636,7.82676 -18.2024,25.16038 -10.37781,38.71801 7.27383,12.59863 -1.81855,28.34621 -16.36583,28.34622 -14.54727,0 -23.63966,-15.74757 -16.36584,-28.34621 7.82666,-13.55782 3.18112,-30.89332 -10.37628,-38.72069 -13.5574,-7.82736 -30.89315,-3.18276 -38.7212,10.37426 -19.36149,33.5351 -10.24961,76.27848 21.10495,99.00208 -16.326,29.0683 -43.5885,50.4095 -75.72628,59.2789 -2.78155,-2.5901 -5.97451,-5.0022 -9.53117,-7.199 L 53.450595,924.32495 c -29.51995,-18.24339 -77.381236,-18.24339 -106.901189,0 L -320.70377,1089.4886 c -3.55668,2.1968 -6.74966,4.6089 -9.53123,7.199 -32.13777,-8.8694 -59.40027,-30.2106 -75.72627,-59.2789 31.35455,-22.7236 40.46646,-65.46692 21.10498,-99.00201 -7.82965,-13.5536 -25.16294,-18.19572 -38.71847,-10.36943 -13.55552,7.82629 -18.20197,25.15842 -10.37903,38.71589 7.27382,12.59863 -1.81856,28.34621 -16.36583,28.34621 -14.54728,0 -23.63966,-15.74758 -16.36584,-28.34621 7.83239,-13.55834 3.18826,-30.89902 -10.37202,-38.72805 -13.56027,-7.82903 -30.8998,-3.18063 -38.72548,10.38159 -26.40368,45.73247 1.02923,103.75581 53.12877,112.37271 26.07125,57.9163 80.49427,98.0134 143.53504,105.7512 l 265.668554,164.1817 c 29.51995,18.2455 77.381241,18.2455 106.901191,0 z"
           id="path16"
           sodipodi:nodetypes="cccscscsccccccccccscscscccccc" /></g><g
         inkscape:label="2 Top"
         id="g182"
         style="display:inline;stroke:#ffffff;stroke-opacity:1;stroke-width:6.05224443;stroke-dasharray:none"><path
           d="m -53.450592,1189.7491 c 29.519909,18.2425 77.3812,18.2425 106.901191,10e-5 L 320.70377,1024.588 c 29.51969,-18.2454 29.51969,-47.82368 0,-66.067 L 53.450595,793.35883 C 46.281972,788.92846 37.744594,785.43468 28.346457,783.08521 V 719.09993 C 61.886459,705.53233 81.109899,670.09967 74.198221,634.59067 67.286633,599.08214 36.179125,573.45868 0,573.45868 c -36.179125,0 -67.286633,25.62346 -74.198221,61.13199 -6.911678,35.509 12.311762,70.94166 45.851764,84.50926 v 63.98528 c -9.398136,2.34947 -17.935513,5.84325 -25.104137,10.27362 L -320.70377,958.521 c -29.51969,18.24332 -29.51969,47.8216 0,66.067 z"
           style="fill:none;stroke:#ffffff;stroke-opacity:1;stroke-width:6.05224443;stroke-dasharray:none"
           id="path177"
           sodipodi:nodetypes="cccccccssscccccc" /></g><g
         inkscape:label="1 Eye"
         id="g190"
         style="display:inline;stroke:#ffffff;stroke-opacity:1;stroke-width:6.05224443;stroke-dasharray:none;fill:#ffffff;fill-opacity:1;fill-rule:evenodd"><path
           id="path190"
           style="fill:#ffffff;stroke:#ffffff;stroke-opacity:1;stroke-width:6.05224443;stroke-dasharray:none;fill-opacity:1;fill-rule:evenodd"
           d="M 25.058275,1122.5197 C 25.055511,1108.6823 13.837352,1097.4664 7.4999999e-6,1097.4664 -13.837337,1097.4664 -25.055496,1108.6823 -25.05826,1122.5197 -25.05546,1136.3571 -13.837337,1147.573 7.4999999e-6,1147.573 13.837352,1147.573 25.055511,1136.3571 25.058275,1122.5197 Z m 36.094488,0 C 61.148445,1088.749 33.770687,1061.3748 7.4999999e-6,1061.3748 -33.770672,1061.3748 -61.14843,1088.749 -61.152748,1122.5197 c 0.0043,33.7707 27.382076,61.1449 61.1527554999999,61.1449 C 33.770687,1183.6646 61.148445,1156.2904 61.152763,1122.5197 Z M 53.450595,1189.7492 162.235,1122.52 53.450594,1055.2906 c -29.519952,-18.2428 -77.381238,-18.2428 -106.901189,0 L -162.235,1122.52 l 108.784404,67.2291 c 29.519906,18.2425 77.381196,18.2425 106.901191,10e-5 z" /></g></g></g></svg>
