<?xml version="1.0" encoding="UTF-8" standalone="no"?>
<!-- Created with Inkscape (http://www.inkscape.org/) -->

<svg
   width="100mm"
   height="100mm"
   viewBox="0 0 100 100"
   version="1.1"
   id="svg1"
   xml:space="preserve"
   inkscape:version="1.4 (86a8ad7, 2024-10-11)"
   sodipodi:docname="actionbot_divine.svg"
   xmlns:inkscape="http://www.inkscape.org/namespaces/inkscape"
   xmlns:sodipodi="http://sodipodi.sourceforge.net/DTD/sodipodi-0.dtd"
   xmlns="http://www.w3.org/2000/svg"
   xmlns:svg="http://www.w3.org/2000/svg"><sodipodi:namedview
     id="namedview1"
     pagecolor="#000000"
     bordercolor="#000000"
     borderopacity="0.25"
     inkscape:showpageshadow="2"
     inkscape:pageopacity="0.0"
     inkscape:pagecheckerboard="0"
     inkscape:deskcolor="#d1d1d1"
     inkscape:document-units="mm"
     inkscape:zoom="2.1647727"
     inkscape:cx="166.06824"
     inkscape:cy="197.94226"
     inkscape:window-width="2560"
     inkscape:window-height="1417"
     inkscape:window-x="1432"
     inkscape:window-y="1432"
     inkscape:window-maximized="1"
     inkscape:current-layer="svg1" /><defs
     id="defs1"><marker
       id="DistanceX"
       orient="auto"
       refX="0.0"
       refY="0.0"
       style="overflow:visible"><path
         d="M 3,-3 L -3,3 M 0,-5 L  0,5"
         style="stroke:#000000; stroke-width:0.5"
         id="path1" /></marker><pattern
       id="Hatch"
       patternUnits="userSpaceOnUse"
       width="8"
       height="8"
       x="0"
       y="0"><path
         d="M8 4 l-4,4"
         stroke="#000000"
         stroke-width="0.25"
         linecap="square"
         id="path2" /><path
         d="M6 2 l-4,4"
         stroke="#000000"
         stroke-width="0.25"
         linecap="square"
         id="path3" /><path
         d="M4 0 l-4,4"
         stroke="#000000"
         stroke-width="0.25"
         linecap="square"
         id="path4" /></pattern><symbol
       id="*Model_Space" /><symbol
       id="*Paper_Space" /><symbol
       id="*Paper_Space0" /><symbol
       id="*Paper_Space4" /><symbol
       id="*Paper_Space5" /><symbol
       id="*Paper_Space6" /><symbol
       id="*Paper_Space7" /><symbol
       id="*Paper_Space8" /></defs><g
     inkscape:label="Ref"
     id="g67"
     transform="matrix(0.08261394,0,0,0.082614,49.999974,-42.735831)"
     style="display:none"><path
       d="m 0,555.59055 -539.18164,391.7384 205.94906,633.84605 H 333.23258 L 539.18164,947.32895 Z"
       style="fill:none;stroke:#ff00ff"
       id="path65" /><path
       d="m 604.72441,1122.5197 a 604.72441,604.72441 0 0 0 -1209.44882,0 604.72441,604.72441 0 0 0 1209.44882,0 z"
       style="fill:none;stroke:#ff00ff"
       id="path66" /><path
       d="M -566.92913,517.79528 H 566.92913 V 1651.6535 H -566.92913 Z"
       style="fill:none;stroke:#ff00ff"
       id="path67" /></g><g
     inkscape:label="3"
     id="g156"
     transform="matrix(0.08261394,0,0,0.082614,49.999974,-42.735831)"
     style="fill:#ffffff;fill-opacity:1"><path
       style="fill:#ffffff;stroke:#ffffff;fill-opacity:1;stroke-width:6.05224516;stroke-dasharray:none;stroke-opacity:1"
       d="M 437.071,941.479 558.693,891.102"
       id="path72" /><path
       style="fill:#ffffff;stroke:#ffffff;fill-opacity:1;stroke-width:6.05224516;stroke-dasharray:none;stroke-opacity:1"
       d="m 435.121,990.527 69.94,-21.216"
       id="path73" /><path
       style="fill:#ffffff;stroke:#ffffff;fill-opacity:1;stroke-width:6.05224516;stroke-dasharray:none;stroke-opacity:1"
       d="m 541.835,958.156 36.85,-11.179"
       id="path74" /><path
       style="fill:#ffffff;stroke:#ffffff;fill-opacity:1;stroke-width:6.05224516;stroke-dasharray:none;stroke-opacity:1"
       d="m 526.393,1017.81 66.712,-13.27"
       id="path75" /><path
       style="fill:#ffffff;stroke:#ffffff;fill-opacity:1;stroke-width:6.05224516;stroke-dasharray:none;stroke-opacity:1"
       d="m 448.84,1078.31 152.972,-15.06"
       id="path76" /><path
       style="fill:#ffffff;stroke:#ffffff;fill-opacity:1;stroke-width:6.05224516;stroke-dasharray:none;stroke-opacity:1"
       d="m 322.658,1090.74 64.279,-6.33"
       id="path77" /><path
       style="fill:#ffffff;stroke:#ffffff;fill-opacity:1;stroke-width:6.05224516;stroke-dasharray:none;stroke-opacity:1"
       d="m 386.937,1084.41 v 0"
       id="path78" /><path
       style="fill:#ffffff;stroke:#ffffff;fill-opacity:1;stroke-width:6.05224516;stroke-dasharray:none;stroke-opacity:1"
       d="M 396.906,1122.52 H 604.724"
       id="path79" /><path
       style="fill:#ffffff;stroke:#ffffff;fill-opacity:1;stroke-width:6.05224516;stroke-dasharray:none;stroke-opacity:1"
       d="m 322.658,1154.3 279.154,27.49"
       id="path80" /><path
       style="fill:#ffffff;stroke:#ffffff;fill-opacity:1;stroke-width:6.05224516;stroke-dasharray:none;stroke-opacity:1"
       d="m 283.05,1178.82 310.055,61.68"
       id="path81" /><path
       style="fill:#ffffff;stroke:#ffffff;fill-opacity:1;stroke-width:6.05224516;stroke-dasharray:none;stroke-opacity:1"
       d="m 301.731,1214.05 276.954,84.01"
       id="path82" /><path
       style="fill:#ffffff;stroke:#ffffff;fill-opacity:1;stroke-width:6.05224516;stroke-dasharray:none;stroke-opacity:1"
       d="m 342.317,1264.31 216.376,89.63"
       id="path83" /><path
       style="fill:#ffffff;stroke:#ffffff;fill-opacity:1;stroke-width:6.05224516;stroke-dasharray:none;stroke-opacity:1"
       d="m 318.881,1292.97 214.438,114.61"
       id="path84" /><path
       style="fill:#ffffff;stroke:#ffffff;fill-opacity:1;stroke-width:6.05224516;stroke-dasharray:none;stroke-opacity:1"
       d="M 285.741,1313.45 502.81,1458.49"
       id="path85" /><path
       style="fill:#ffffff;stroke:#ffffff;fill-opacity:1;stroke-width:6.05224516;stroke-dasharray:none;stroke-opacity:1"
       d="m 255.452,1332.16 212.006,173.99"
       id="path86" /><path
       style="fill:#ffffff;stroke:#ffffff;fill-opacity:1;stroke-width:6.05224516;stroke-dasharray:none;stroke-opacity:1"
       d="m 227.141,1349.66 200.464,200.46"
       id="path87" /><path
       style="fill:#ffffff;stroke:#ffffff;fill-opacity:1;stroke-width:6.05224516;stroke-dasharray:none;stroke-opacity:1"
       d="m 208.151,1376.15 175.482,213.83"
       id="path88" /><path
       style="fill:#ffffff;stroke:#ffffff;fill-opacity:1;stroke-width:6.05224516;stroke-dasharray:none;stroke-opacity:1"
       d="m 306.464,1581.17 29.503,44.16"
       id="path89" /><path
       style="fill:#ffffff;stroke:#ffffff;fill-opacity:1;stroke-width:6.05224516;stroke-dasharray:none;stroke-opacity:1"
       d="m 121.203,1415.13 110.215,266.08"
       id="path90" /><path
       style="fill:#ffffff;stroke:#ffffff;fill-opacity:1;stroke-width:6.05224516;stroke-dasharray:none;stroke-opacity:1"
       d="m 0,1470.68 v 256.56"
       id="path91" /><path
       style="fill:#ffffff;stroke:#ffffff;fill-opacity:1;stroke-width:6.05224516;stroke-dasharray:none;stroke-opacity:1"
       d="M 93.8839,1432.01 175.542,1701.2"
       id="path92" /><path
       style="fill:#ffffff;stroke:#ffffff;fill-opacity:1;stroke-width:6.05224516;stroke-dasharray:none;stroke-opacity:1"
       d="m 65.1004,1449.8 52.8756,265.82"
       id="path93" /><path
       style="fill:#ffffff;stroke:#ffffff;fill-opacity:1;stroke-width:6.05224516;stroke-dasharray:none;stroke-opacity:1"
       d="m 33.8054,1465.75 25.468,258.58"
       id="path94" /><path
       style="fill:#ffffff;stroke:#ffffff;fill-opacity:1;stroke-width:6.05224516;stroke-dasharray:none;stroke-opacity:1"
       d="m -33.8054,1465.75 -25.468,258.58"
       id="path95" /><path
       style="fill:#ffffff;stroke:#ffffff;fill-opacity:1;stroke-width:6.05224516;stroke-dasharray:none;stroke-opacity:1"
       d="m -65.1004,1449.8 -52.8756,265.82"
       id="path96" /><path
       style="fill:#ffffff;stroke:#ffffff;fill-opacity:1;stroke-width:6.05224516;stroke-dasharray:none;stroke-opacity:1"
       d="M -93.8839,1432.01 -175.542,1701.2"
       id="path97" /><path
       style="fill:#ffffff;stroke:#ffffff;fill-opacity:1;stroke-width:6.05224516;stroke-dasharray:none;stroke-opacity:1"
       d="m -121.203,1415.13 -110.215,266.08"
       id="path98" /><path
       style="fill:#ffffff;stroke:#ffffff;fill-opacity:1;stroke-width:6.05224516;stroke-dasharray:none;stroke-opacity:1"
       d="m -306.464,1581.17 -29.503,44.16"
       id="path99" /><path
       style="fill:#ffffff;stroke:#ffffff;fill-opacity:1;stroke-width:6.05224516;stroke-dasharray:none;stroke-opacity:1"
       d="m -208.151,1376.15 -175.482,213.83"
       id="path100" /><path
       style="fill:#ffffff;stroke:#ffffff;fill-opacity:1;stroke-width:6.05224516;stroke-dasharray:none;stroke-opacity:1"
       d="m -227.141,1349.66 -200.464,200.46"
       id="path101" /><path
       style="fill:#ffffff;stroke:#ffffff;fill-opacity:1;stroke-width:6.05224516;stroke-dasharray:none;stroke-opacity:1"
       d="m -255.452,1332.16 -212.006,173.99"
       id="path102" /><path
       style="fill:#ffffff;stroke:#ffffff;fill-opacity:1;stroke-width:6.05224516;stroke-dasharray:none;stroke-opacity:1"
       d="M -285.741,1313.45 -502.81,1458.49"
       id="path103" /><path
       style="fill:#ffffff;stroke:#ffffff;fill-opacity:1;stroke-width:6.05224516;stroke-dasharray:none;stroke-opacity:1"
       d="m -318.881,1292.97 -214.438,114.61"
       id="path104" /><path
       style="fill:#ffffff;stroke:#ffffff;fill-opacity:1;stroke-width:6.05224516;stroke-dasharray:none;stroke-opacity:1"
       d="m -342.317,1264.31 -216.376,89.63"
       id="path105" /><path
       style="fill:#ffffff;stroke:#ffffff;fill-opacity:1;stroke-width:6.05224516;stroke-dasharray:none;stroke-opacity:1"
       d="m -301.731,1214.05 -276.954,84.01"
       id="path106" /><path
       style="fill:#ffffff;stroke:#ffffff;fill-opacity:1;stroke-width:6.05224516;stroke-dasharray:none;stroke-opacity:1"
       d="m -283.05,1178.82 -310.055,61.68"
       id="path107" /><path
       style="fill:#ffffff;stroke:#ffffff;fill-opacity:1;stroke-width:6.05224516;stroke-dasharray:none;stroke-opacity:1"
       d="m -322.658,1154.3 -279.154,27.49"
       id="path108" /><path
       style="fill:#ffffff;stroke:#ffffff;fill-opacity:1;stroke-width:6.05224516;stroke-dasharray:none;stroke-opacity:1"
       d="M -396.906,1122.52 H -604.724"
       id="path109" /><path
       style="fill:#ffffff;stroke:#ffffff;fill-opacity:1;stroke-width:6.05224516;stroke-dasharray:none;stroke-opacity:1"
       d="M -318.881,952.074 -533.319,837.455"
       id="path110" /><path
       style="fill:#ffffff;stroke:#ffffff;fill-opacity:1;stroke-width:6.05224516;stroke-dasharray:none;stroke-opacity:1"
       d="M -285.741,931.594 -502.81,786.553"
       id="path111" /><path
       style="fill:#ffffff;stroke:#ffffff;fill-opacity:1;stroke-width:6.05224516;stroke-dasharray:none;stroke-opacity:1"
       d="M -255.452,912.875 -467.458,738.887"
       id="path112" /><path
       style="fill:#ffffff;stroke:#ffffff;fill-opacity:1;stroke-width:6.05224516;stroke-dasharray:none;stroke-opacity:1"
       d="m -541.835,958.156 -36.85,-11.179"
       id="path113" /><path
       style="fill:#ffffff;stroke:#ffffff;fill-opacity:1;stroke-width:6.05224516;stroke-dasharray:none;stroke-opacity:1"
       d="m -283.05,1066.22 -147.672,-29.38"
       id="path114" /><path
       style="fill:#ffffff;stroke:#ffffff;fill-opacity:1;stroke-width:6.05224516;stroke-dasharray:none;stroke-opacity:1"
       d="m -526.393,1017.81 -66.712,-13.27"
       id="path115" /><path
       style="fill:#ffffff;stroke:#ffffff;fill-opacity:1;stroke-width:6.05224516;stroke-dasharray:none;stroke-opacity:1"
       d="m -301.731,1030.99 -96.616,-29.31"
       id="path116" /><path
       style="fill:#ffffff;stroke:#ffffff;fill-opacity:1;stroke-width:6.05224516;stroke-dasharray:none;stroke-opacity:1"
       d="m -435.121,990.527 -69.94,-21.216"
       id="path117" /><path
       style="fill:#ffffff;stroke:#ffffff;fill-opacity:1;stroke-width:6.05224516;stroke-dasharray:none;stroke-opacity:1"
       d="m -322.658,1090.74 -64.279,-6.33"
       id="path118" /><path
       style="fill:#ffffff;stroke:#ffffff;fill-opacity:1;stroke-width:6.05224516;stroke-dasharray:none;stroke-opacity:1"
       d="m -448.84,1078.31 -152.972,-15.06"
       id="path119" /><path
       style="fill:#ffffff;stroke:#ffffff;fill-opacity:1;stroke-width:6.05224516;stroke-dasharray:none;stroke-opacity:1"
       d="m -342.317,980.727 -50.149,-20.772"
       id="path120" /><path
       style="fill:#ffffff;stroke:#ffffff;fill-opacity:1;stroke-width:6.05224516;stroke-dasharray:none;stroke-opacity:1"
       d="M -437.071,941.479 -558.693,891.102"
       id="path121" /><path
       style="fill:#ffffff;stroke:#ffffff;fill-opacity:1;stroke-width:6.05224516;stroke-dasharray:none;stroke-opacity:1"
       d="M -227.141,895.379 -427.605,694.915"
       id="path122" /><path
       style="fill:#ffffff;stroke:#ffffff;fill-opacity:1;stroke-width:6.05224516;stroke-dasharray:none;stroke-opacity:1"
       d="M -200.116,878.677 -383.633,655.061"
       id="path123" /><path
       style="fill:#ffffff;stroke:#ffffff;fill-opacity:1;stroke-width:6.05224516;stroke-dasharray:none;stroke-opacity:1"
       d="M -121.203,829.909 -231.418,563.827"
       id="path124" /><path
       style="fill:#ffffff;stroke:#ffffff;fill-opacity:1;stroke-width:6.05224516;stroke-dasharray:none;stroke-opacity:1"
       d="M -173.798,862.413 -335.967,619.71"
       id="path125" /><path
       style="fill:#ffffff;stroke:#ffffff;fill-opacity:1;stroke-width:6.05224516;stroke-dasharray:none;stroke-opacity:1"
       d="M -147.663,846.261 -285.065,589.2"
       id="path126" /><path
       style="fill:#ffffff;stroke:#ffffff;fill-opacity:1;stroke-width:6.05224516;stroke-dasharray:none;stroke-opacity:1"
       d="M -93.8839,813.026 -175.542,543.835"
       id="path127" /><path
       style="fill:#ffffff;stroke:#ffffff;fill-opacity:1;stroke-width:6.05224516;stroke-dasharray:none;stroke-opacity:1"
       d="M -65.1004,795.238 -117.976,529.415"
       id="path128" /><path
       style="fill:#ffffff;stroke:#ffffff;fill-opacity:1;stroke-width:6.05224516;stroke-dasharray:none;stroke-opacity:1"
       d="M 0,555.591 V 517.795"
       id="path129" /><path
       style="fill:#ffffff;stroke:#ffffff;fill-opacity:1;stroke-width:6.05224516;stroke-dasharray:none;stroke-opacity:1"
       d="M 65.1004,795.238 117.976,529.415"
       id="path130" /><path
       style="fill:#ffffff;stroke:#ffffff;fill-opacity:1;stroke-width:6.05224516;stroke-dasharray:none;stroke-opacity:1"
       d="M 93.8839,813.026 175.542,543.835"
       id="path131" /><path
       style="fill:#ffffff;stroke:#ffffff;fill-opacity:1;stroke-width:6.05224516;stroke-dasharray:none;stroke-opacity:1"
       d="M 121.203,829.909 231.418,563.827"
       id="path132" /><path
       style="fill:#ffffff;stroke:#ffffff;fill-opacity:1;stroke-width:6.05224516;stroke-dasharray:none;stroke-opacity:1"
       d="M 147.663,846.261 285.065,589.2"
       id="path133" /><path
       style="fill:#ffffff;stroke:#ffffff;fill-opacity:1;stroke-width:6.05224516;stroke-dasharray:none;stroke-opacity:1"
       d="M 173.798,862.413 335.967,619.71"
       id="path134" /><path
       style="fill:#ffffff;stroke:#ffffff;fill-opacity:1;stroke-width:6.05224516;stroke-dasharray:none;stroke-opacity:1"
       d="M 200.116,878.677 383.633,655.061"
       id="path135" /><path
       style="fill:#ffffff;stroke:#ffffff;fill-opacity:1;stroke-width:6.05224516;stroke-dasharray:none;stroke-opacity:1"
       d="M 255.452,912.875 467.458,738.887"
       id="path136" /><path
       style="fill:#ffffff;stroke:#ffffff;fill-opacity:1;stroke-width:6.05224516;stroke-dasharray:none;stroke-opacity:1"
       d="M 285.741,931.594 502.81,786.553"
       id="path137" /><path
       style="fill:#ffffff;stroke:#ffffff;fill-opacity:1;stroke-width:6.05224516;stroke-dasharray:none;stroke-opacity:1"
       d="M 318.881,952.074 533.319,837.455"
       id="path138" /><path
       style="fill:#ffffff;stroke:#ffffff;fill-opacity:1;stroke-width:6.05224516;stroke-dasharray:none;stroke-opacity:1"
       d="M 227.141,895.379 427.605,694.915"
       id="path139" /><path
       style="fill:#ffffff;stroke:#ffffff;fill-opacity:1;stroke-width:6.05224516;stroke-dasharray:none;stroke-opacity:1"
       d="m 283.05,1066.22 147.672,-29.38"
       id="path140" /><path
       style="fill:#ffffff;stroke:#ffffff;fill-opacity:1;stroke-width:6.05224516;stroke-dasharray:none;stroke-opacity:1"
       d="m 430.722,1036.84 v 0"
       id="path141" /><path
       style="fill:#ffffff;stroke:#ffffff;fill-opacity:1;stroke-width:6.05224516;stroke-dasharray:none;stroke-opacity:1"
       d="m 301.731,1030.99 96.616,-29.31"
       id="path142" /><path
       style="fill:#ffffff;stroke:#ffffff;fill-opacity:1;stroke-width:6.05224516;stroke-dasharray:none;stroke-opacity:1"
       d="m 342.317,980.727 50.149,-20.772"
       id="path143" /><path
       style="fill:#ffffff;stroke:#ffffff;fill-opacity:1;stroke-width:6.05224516;stroke-dasharray:none;stroke-opacity:1"
       d="m 392.466,959.955 v 0"
       id="path144" /><path
       style="fill:#ffffff;stroke:#ffffff;fill-opacity:1;stroke-width:6.05224516;stroke-dasharray:none;stroke-opacity:1"
       d="m -33.8054,779.288 -8.4115,-85.404"
       id="path145" /><path
       style="fill:#ffffff;stroke:#ffffff;fill-opacity:1;stroke-width:6.05224516;stroke-dasharray:none;stroke-opacity:1"
       d="m -53.6385,577.919 -5.6349,-57.212"
       id="path146" /><path
       style="fill:#ffffff;stroke:#ffffff;fill-opacity:1;stroke-width:6.05224516;stroke-dasharray:none;stroke-opacity:1"
       d="m 33.8054,779.288 8.4115,-85.404"
       id="path147" /><path
       style="fill:#ffffff;stroke:#ffffff;fill-opacity:1;stroke-width:6.05224516;stroke-dasharray:none;stroke-opacity:1"
       d="m 53.6385,577.919 5.6349,-57.212"
       id="path148" /><path
       style="fill:#ffffff;stroke:#ffffff;fill-opacity:1;stroke-width:6.05224516;stroke-dasharray:none;stroke-opacity:1"
       d="m -147.663,1398.78 -59.847,111.96"
       id="path149" /><path
       style="fill:#ffffff;stroke:#ffffff;fill-opacity:1;stroke-width:6.05224516;stroke-dasharray:none;stroke-opacity:1"
       d="m -245.156,1581.17 -39.909,74.67"
       id="path150" /><path
       style="fill:#ffffff;stroke:#ffffff;fill-opacity:1;stroke-width:6.05224516;stroke-dasharray:none;stroke-opacity:1"
       d="m 147.663,1398.78 59.847,111.96"
       id="path151" /><path
       style="fill:#ffffff;stroke:#ffffff;fill-opacity:1;stroke-width:6.05224516;stroke-dasharray:none;stroke-opacity:1"
       d="m 245.156,1581.17 39.909,74.67"
       id="path152" /><path
       id="path154"
       style="fill:#ffffff;fill-opacity:1;stroke:#ffffff;stroke-width:6.05225;stroke-dasharray:none;fill-rule:evenodd;stroke-opacity:1"
       d="M 153.625,1122.52 53.450594,1060.6108 c -29.519952,-18.2425 -77.381238,-18.2425 -106.901189,0 L -153.625,1122.52 l 100.174404,61.9089 c 29.51995,18.2421 77.381241,18.2421 106.901191,0 z m -134.727362,-3e-4 a 18.897638,18.897638 0 0 0 -37.795276,0 18.897638,18.897638 0 0 0 37.795276,0 z m 37.795275,0 a 56.692913,56.692913 0 0 0 -113.385826,0 56.692913,56.692913 0 0 0 113.385826,0 z" /></g><g
     inkscape:label="2"
     id="g64"
     transform="matrix(0.08261394,0,0,0.082614,49.999974,-42.735831)"
     style="display:inline"><path
       style="fill:none;stroke:#ffffff;stroke-width:6.05225;stroke-dasharray:none;stroke-opacity:1"
       d="m -206.11691,1581.1725 c 10.43695,0 18.89771,-8.4582 18.89773,-18.8951 1e-5,-23.9952 -11.39258,-46.5653 -30.6978,-60.8166 L -170.765,1384.5 l 117.314402,72.5006 c 29.519949,18.2439 77.381239,18.2439 106.901192,0 L 170.765,1384.5 l 47.15198,116.9608 c -19.30522,14.2513 -30.69781,36.8214 -30.6978,60.8166 2e-5,10.4369 8.46078,18.8976 18.89773,18.8951 h 113.38591 c 10.43669,0 18.89744,-8.4582 18.89746,-18.8951 5e-5,-45.655 -40.16276,-80.89 -85.42931,-74.9475 L 203.389,1364.34 320.70377,1291.8395 c 29.51968,-18.2439 29.51968,-47.8222 0,-66.0675 L 53.450597,1060.6108 c -29.519948,-18.2425 -77.381234,-18.2425 -106.901188,0 L -320.70377,1225.772 c -29.51969,18.2453 -29.51969,47.8236 0,66.0675 l 117.31477,72.5005 -49.58197,122.9899 c -45.26655,-5.9425 -85.42936,29.2925 -85.42931,74.9475 2e-5,10.4369 8.46077,18.8976 18.89745,18.8951 z"
       id="path44"
       sodipodi:nodetypes="ccccccccccccccccccccccccc" /></g><g
     inkscape:label="1"
     id="g40"
     transform="matrix(0.08261394,0,0,0.082614,49.999974,-42.735831)"
     style="display:inline"><path
       d="m 320.70377,1155.5511 c 5.95188,-3.6773 10.86802,-7.9443 14.54526,-12.6237 57.9775,-7.6758 108.20325,-44.0051 133.64203,-96.6661 26.71423,-0.5657 51.14506,-15.1929 64.25945,-38.4734 13.1144,-23.28055 12.96369,-51.75508 -0.39641,-74.89546 -5.21908,-9.03722 -16.77568,-12.13304 -25.81352,-6.91505 -9.03783,5.218 -12.13507,16.77422 -6.91815,25.81269 14.54765,25.19727 -3.63711,56.69242 -32.73167,56.69242 -29.09456,0 -47.27932,-31.49515 -32.73167,-56.69242 5.21997,-9.03875 2.12348,-20.59773 -6.91589,-25.81661 -9.03936,-5.21888 -20.59798,-2.12103 -25.81578,6.91897 -21.23303,36.77665 -8.0129,83.82286 29.26837,104.15686 -19.77987,35.3651 -54.3044,60.0634 -94.1624,67.3622 -3.79502,-5.5774 -9.30706,-10.646 -16.22962,-14.9229 L 53.450595,924.32495 c -29.51995,-18.24339 -77.381236,-18.24339 -106.901189,0 L -320.70377,1089.4886 c -6.92256,4.2769 -12.4346,9.3455 -16.22962,14.9229 -39.858,-7.2988 -74.38253,-31.9971 -94.1624,-67.3622 37.28127,-20.334 50.5014,-67.38021 29.26837,-104.15686 -5.21908,-9.03722 -16.77568,-12.13304 -25.81352,-6.91505 -9.03783,5.218 -12.13507,16.77422 -6.91815,25.81269 14.54765,25.19727 -3.63711,56.69242 -32.73167,56.69242 -29.09456,0 -47.27932,-31.49515 -32.73167,-56.69242 5.21997,-9.03875 2.12348,-20.59773 -6.91589,-25.81661 -9.03936,-5.21888 -20.59798,-2.12103 -25.81578,6.91897 -13.3601,23.14038 -13.51081,51.61491 -0.39641,74.89546 13.11439,23.2805 37.54522,37.9077 64.25944,38.4734 25.43879,52.661 75.66454,88.9903 133.64204,96.6661 3.67724,4.6794 8.59338,8.9464 14.54526,12.6237 l 267.253174,165.1612 c 29.51995,18.2455 77.381241,18.2455 106.901191,0 z"
       style="fill:none;stroke:#ffffff;stroke-width:6.05225;stroke-dasharray:none;stroke-opacity:1"
       id="path39"
       sodipodi:nodetypes="cccscscscsccccccccccscscscscccccc" /></g><g
     inkscape:label="0"
     id="g16"
     transform="matrix(0.08261394,0,0,0.082614,49.999974,-42.735831)"
     style="display:inline"><path
       style="fill:none;stroke:#ffffff;stroke-width:6.05225;stroke-dasharray:none;stroke-opacity:1"
       d="m -53.450592,1184.4289 c 29.519954,18.2421 77.381244,18.2421 106.901191,0 L 320.70377,1019.2677 c 29.51971,-18.2456 29.51971,-47.82389 0,-66.06746 L 53.450595,788.03808 C 43.902712,782.13757 31.971608,777.92523 18.897637,775.83905 l 1e-6,-71.46771 C 55.753776,694.85513 79.784611,659.41625 74.987252,621.66346 70.189998,583.9115 38.062712,555.63087 0,555.63087 c -38.062712,0 -70.189998,28.28063 -74.987252,66.03259 -4.797359,37.75279 19.233476,73.19167 56.089614,82.70788 v 71.46771 c -13.073969,2.08618 -25.00507,6.29852 -34.552956,12.19902 L -320.70377,953.20024 c -29.51971,18.24356 -29.51971,47.82186 0,66.06746 z"
       id="path14"
       sodipodi:nodetypes="cccccccssscccccc" /></g></svg>
