<?xml version="1.0" encoding="UTF-8" standalone="no"?>
<!-- Created with Inkscape (http://www.inkscape.org/) -->

<svg
   width="100mm"
   height="100mm"
   viewBox="0 0 100 100"
   version="1.1"
   id="svg1"
   xml:space="preserve"
   sodipodi:docname="actionbot_27_icon.svg"
   inkscape:version="1.4 (86a8ad7, 2024-10-11)"
   xmlns:inkscape="http://www.inkscape.org/namespaces/inkscape"
   xmlns:sodipodi="http://sodipodi.sourceforge.net/DTD/sodipodi-0.dtd"
   xmlns="http://www.w3.org/2000/svg"
   xmlns:svg="http://www.w3.org/2000/svg"><sodipodi:namedview
     id="namedview1"
     pagecolor="#808080"
     bordercolor="#000000"
     borderopacity="0.25"
     inkscape:showpageshadow="2"
     inkscape:pageopacity="0.0"
     inkscape:pagecheckerboard="0"
     inkscape:deskcolor="#d1d1d1"
     inkscape:document-units="mm"
     inkscape:zoom="2.7793849"
     inkscape:cx="182.77425"
     inkscape:cy="187.27165"
     inkscape:window-width="2560"
     inkscape:window-height="1417"
     inkscape:window-x="1432"
     inkscape:window-y="1432"
     inkscape:window-maximized="1"
     inkscape:current-layer="g1" /><defs
     id="defs1"><marker
       id="DistanceX"
       orient="auto"
       refX="0.0"
       refY="0.0"
       style="overflow:visible"><path
         d="M 3,-3 L -3,3 M 0,-5 L  0,5"
         style="stroke:#000000; stroke-width:0.5"
         id="path1" /></marker><pattern
       id="Hatch"
       patternUnits="userSpaceOnUse"
       width="8"
       height="8"
       x="0"
       y="0"><path
         d="M8 4 l-4,4"
         stroke="#000000"
         stroke-width="0.25"
         linecap="square"
         id="path2" /><path
         d="M6 2 l-4,4"
         stroke="#000000"
         stroke-width="0.25"
         linecap="square"
         id="path3" /><path
         d="M4 0 l-4,4"
         stroke="#000000"
         stroke-width="0.25"
         linecap="square"
         id="path4" /></pattern><symbol
       id="*Model_Space" /><symbol
       id="*Paper_Space" /><symbol
       id="*Paper_Space0" /><symbol
       id="*Paper_Space4" /><symbol
       id="*Paper_Space5" /><symbol
       id="*Paper_Space6" /><symbol
       id="*Paper_Space7" /><symbol
       id="*Paper_Space8" /></defs><g
     inkscape:label="Layer 1"
     inkscape:groupmode="layer"
     id="layer1"
     transform="matrix(1.7495799,0,0,1.7495799,-37.478995,-37.468997)"><g
       id="g1"
       transform="matrix(0.08261398,0,0,0.08261398,50,-42.735847)"><g
         inkscape:label="5 Combined"
         id="g170"
         style="stroke:#ffffff;stroke-width:6.05369765;stroke-dasharray:none;stroke-opacity:1"><path
           d="M 54.242644,1451.1903 320.70377,1286.5192 c 29.51979,-18.2441 29.51979,-47.8225 0,-66.0675 L 268.194,1188 l 52.50977,-32.4489 c 29.5198,-18.2422 29.5198,-47.8206 0,-66.0625 L 268.194,1057.04 l 52.50977,-32.452 c 29.51969,-18.2454 29.51969,-47.82368 0,-66.067 L 53.450595,793.35883 c -29.51995,-18.24349 -77.381236,-18.24349 -106.901189,0 L -320.70377,958.521 c -29.51969,18.24332 -29.51969,47.8216 0,66.067 l 52.50977,32.452 -52.50978,32.4486 c -29.51979,18.2419 -29.51979,47.8203 0,66.0625 L -268.194,1188 l -52.50978,32.4517 c -29.51979,18.245 -29.51979,47.8234 0,66.0675 l 266.461082,164.6711 c 30.312049,18.7337 78.173339,18.7337 108.485342,0 z"
           style="fill:#000000;fill-opacity:1;stroke:#ffffff;stroke-width:6.05369765;stroke-dasharray:none;stroke-opacity:1"
           id="path135"
           sodipodi:nodetypes="ccccccccccccccccccccc" /><path
           d="M -53.450596,1320.7123 -268.194,1188 l 105.959,-65.48 -105.959,-65.48 214.743406,-132.71505 c 29.519953,-18.24339 77.381239,-18.24339 106.901189,0 L 268.194,1057.04 162.235,1122.52 268.194,1188 53.450595,1320.7123 c -29.51995,18.2455 -77.381241,18.2455 -106.901191,0 z"
           style="fill:#000000;fill-opacity:1;stroke:#ffffff;stroke-width:6.05369765;stroke-dasharray:none;stroke-opacity:1"
           id="path142"
           sodipodi:nodetypes="ccccccccccc" /><path
           d="M 53.450599,1189.7492 162.235,1122.52 53.450597,1055.2906 c -29.519948,-18.2428 -77.381234,-18.2428 -106.901188,0 L -162.235,1122.52 l 108.784408,67.2291 c 29.519909,18.2425 77.3812,18.2425 106.901191,10e-5 z"
           style="fill:#000000;fill-opacity:1;stroke:#ffffff;stroke-width:6.05369765;stroke-dasharray:none;stroke-opacity:1"
           id="path145"
           sodipodi:nodetypes="ccccccc" /></g><g
         inkscape:label="1 Eye"
         id="g190"
         style="display:inline;fill:#ffffff;fill-opacity:1;fill-rule:evenodd;stroke:#ffffff;stroke-width:6.05224;stroke-dasharray:none;stroke-opacity:1"><path
           id="path190"
           style="fill:#ffffff;fill-opacity:1;fill-rule:evenodd;stroke:#ffffff;stroke-width:6.05224;stroke-dasharray:none;stroke-opacity:1"
           d="M 25.058275,1122.5197 C 25.055511,1108.6823 13.837352,1097.4664 7.4999999e-6,1097.4664 -13.837337,1097.4664 -25.055496,1108.6823 -25.05826,1122.5197 -25.05546,1136.3571 -13.837337,1147.573 7.4999999e-6,1147.573 13.837352,1147.573 25.055511,1136.3571 25.058275,1122.5197 Z m 36.094488,0 C 61.148445,1088.749 33.770687,1061.3748 7.4999999e-6,1061.3748 -33.770672,1061.3748 -61.14843,1088.749 -61.152748,1122.5197 c 0.0043,33.7707 27.382076,61.1449 61.1527554999999,61.1449 C 33.770687,1183.6646 61.148445,1156.2904 61.152763,1122.5197 Z M 53.450595,1189.7492 162.235,1122.52 53.450594,1055.2906 c -29.519952,-18.2428 -77.381238,-18.2428 -106.901189,0 L -162.235,1122.52 l 108.784404,67.2291 c 29.519906,18.2425 77.381196,18.2425 106.901191,10e-5 z" /></g></g></g></svg>
