<?xml version="1.0" encoding="UTF-8" standalone="no"?>
<!-- Created with Inkscape (http://www.inkscape.org/) -->

<svg
   width="100mm"
   height="100mm"
   viewBox="0 0 100 100"
   version="1.1"
   id="svg1"
   xml:space="preserve"
   inkscape:version="1.4 (86a8ad7, 2024-10-11)"
   sodipodi:docname="actionbot_filled.svg"
   xmlns:inkscape="http://www.inkscape.org/namespaces/inkscape"
   xmlns:sodipodi="http://sodipodi.sourceforge.net/DTD/sodipodi-0.dtd"
   xmlns="http://www.w3.org/2000/svg"
   xmlns:svg="http://www.w3.org/2000/svg"><sodipodi:namedview
     id="namedview1"
     pagecolor="#000000"
     bordercolor="#000000"
     borderopacity="0.25"
     inkscape:showpageshadow="2"
     inkscape:pageopacity="0.0"
     inkscape:pagecheckerboard="0"
     inkscape:deskcolor="#d1d1d1"
     inkscape:document-units="mm"
     inkscape:zoom="2"
     inkscape:cx="186.25"
     inkscape:cy="153.75"
     inkscape:window-width="2560"
     inkscape:window-height="1417"
     inkscape:window-x="1432"
     inkscape:window-y="1432"
     inkscape:window-maximized="1"
     inkscape:current-layer="layer1" /><defs
     id="defs1"><marker
       id="DistanceX"
       orient="auto"
       refX="0.0"
       refY="0.0"
       style="overflow:visible"><path
         d="M 3,-3 L -3,3 M 0,-5 L  0,5"
         style="stroke:#000000; stroke-width:0.5"
         id="path1" /></marker><pattern
       id="Hatch"
       patternUnits="userSpaceOnUse"
       width="8"
       height="8"
       x="0"
       y="0"><path
         d="M8 4 l-4,4"
         stroke="#000000"
         stroke-width="0.25"
         linecap="square"
         id="path2" /><path
         d="M6 2 l-4,4"
         stroke="#000000"
         stroke-width="0.25"
         linecap="square"
         id="path3" /><path
         d="M4 0 l-4,4"
         stroke="#000000"
         stroke-width="0.25"
         linecap="square"
         id="path4" /></pattern><symbol
       id="*Model_Space" /><symbol
       id="*Paper_Space" /><symbol
       id="*Paper_Space0" /><symbol
       id="_ARCHTICK"><path
         d="M -1.889764,1124.409449 L 1.889764,1120.629921"
         style="fill:none;stroke:#FFFF00;stroke-linecap: round"
         id="path5" /></symbol><symbol
       id="_OPEN30"><path
         style="fill:none;stroke:#FFFF00;stroke-linecap:round"
         d="M -3.77953 1121.51 L 0 1122.52"
         id="path6" /><path
         style="fill:none;stroke:#FFFF00;stroke-linecap:round"
         d="M 0 1122.52 L -3.77953 1123.53"
         id="path7" /><path
         style="fill:none;stroke:#FFFF00;stroke-linecap:round"
         d="M 0 1122.52 L -3.77953 1122.52"
         id="path8" /></symbol><symbol
       id="_DOT"><path
         d="M -0.944882,1122.519685 A 0.944882,0.944882 0.0 0 0 0.944882,1122.519685 A 0.944882,0.944882 0.0 0 0 -0.944882,1122.519685 z"
         style="fill:none;stroke:#FFFF00;stroke-linecap: round"
         id="path9" /><path
         style="fill:none;stroke:#FFFF00;stroke-linecap:round"
         d="M -1.88976 1122.52 L -3.77953 1122.52"
         id="path10" /></symbol><symbol
       id="*Paper_Space4" /><symbol
       id="*Paper_Space5" /><symbol
       id="*Paper_Space6" /><symbol
       id="*Paper_Space7" /><symbol
       id="*Paper_Space8" /><symbol
       id="botlayer"><path
         d="M -53.450592,1443.223232 A 75.590551,75.590551 -0.000000 0 0 53.450591,1443.223233"
         style="fill:none;stroke:#FFFF00"
         id="path11" /><path
         d="M -320.703544,1069.069090 A 75.590551,75.590551 -0.000000 0 0 -320.703548,1175.970276"
         style="fill:none;stroke:#FFFF00"
         id="path12" /><path
         d="M 53.450591,801.816137 A 75.590551,75.590551 -0.000000 0 0 -53.450587,801.816133"
         style="fill:none;stroke:#FFFF00"
         id="path13" /><path
         d="M 320.703548,1175.970276 A 75.590551,75.590551 -0.000000 0 0 320.703548,1069.069094"
         style="fill:none;stroke:#FFFF00"
         id="path14" /><path
         d="M 320.703549,1175.970278 L 53.450593,1443.223234"
         style="fill:none;stroke:#FFFF00"
         id="path15" /><path
         d="M -53.450589,1443.223234 L -320.703549,1175.970278"
         style="fill:none;stroke:#FFFF00"
         id="path16" /><path
         d="M -320.703553,1069.069096 L -53.450585,801.816132"
         style="fill:none;stroke:#FFFF00"
         id="path17" /><path
         d="M 53.450589,801.816136 L 320.703549,1069.069092"
         style="fill:none;stroke:#FFFF00"
         id="path18" /></symbol><marker
       id="DistanceX-0"
       orient="auto"
       refX="0.0"
       refY="0.0"
       style="overflow:visible"><path
         d="M 3,-3 L -3,3 M 0,-5 L  0,5"
         style="stroke:#000000; stroke-width:0.5"
         id="path1-9" /></marker><pattern
       id="Hatch-4"
       patternUnits="userSpaceOnUse"
       width="8"
       height="8"
       x="0"
       y="0"><path
         d="M8 4 l-4,4"
         stroke="#000000"
         stroke-width="0.25"
         linecap="square"
         id="path2-8" /><path
         d="M6 2 l-4,4"
         stroke="#000000"
         stroke-width="0.25"
         linecap="square"
         id="path3-8" /><path
         d="M4 0 l-4,4"
         stroke="#000000"
         stroke-width="0.25"
         linecap="square"
         id="path4-2" /></pattern><symbol
       id="*Model_Space-4" /><symbol
       id="*Paper_Space-5" /><symbol
       id="*Paper_Space0-5" /><symbol
       id="_ARCHTICK-1"><path
         d="M -1.889764,1124.409449 L 1.889764,1120.629921"
         style="fill:none;stroke:#FFFF00;stroke-linecap: round"
         id="path5-7" /></symbol><symbol
       id="_OPEN30-1"><path
         style="fill:none;stroke:#FFFF00;stroke-linecap:round"
         d="M -3.77953 1121.51 L 0 1122.52"
         id="path6-1" /><path
         style="fill:none;stroke:#FFFF00;stroke-linecap:round"
         d="M 0 1122.52 L -3.77953 1123.53"
         id="path7-5" /><path
         style="fill:none;stroke:#FFFF00;stroke-linecap:round"
         d="M 0 1122.52 L -3.77953 1122.52"
         id="path8-2" /></symbol><symbol
       id="_DOT-7"><path
         d="M -0.944882,1122.519685 A 0.944882,0.944882 0.0 0 0 0.944882,1122.519685 A 0.944882,0.944882 0.0 0 0 -0.944882,1122.519685 z"
         style="fill:none;stroke:#FFFF00;stroke-linecap: round"
         id="path9-6" /><path
         style="fill:none;stroke:#FFFF00;stroke-linecap:round"
         d="M -1.88976 1122.52 L -3.77953 1122.52"
         id="path10-1" /></symbol><symbol
       id="*Paper_Space4-4" /><symbol
       id="*Paper_Space5-2" /><symbol
       id="*Paper_Space6-3" /><symbol
       id="*Paper_Space7-2" /><symbol
       id="*Paper_Space8-2" /><symbol
       id="botlayer-1"><path
         d="M -53.450592,1443.223232 A 75.590551,75.590551 -0.000000 0 0 53.450591,1443.223233"
         style="fill:none;stroke:#FFFF00"
         id="path11-6" /><path
         d="M -320.703544,1069.069090 A 75.590551,75.590551 -0.000000 0 0 -320.703548,1175.970276"
         style="fill:none;stroke:#FFFF00"
         id="path12-8" /><path
         d="M 53.450591,801.816137 A 75.590551,75.590551 -0.000000 0 0 -53.450587,801.816133"
         style="fill:none;stroke:#FFFF00"
         id="path13-5" /><path
         d="M 320.703548,1175.970276 A 75.590551,75.590551 -0.000000 0 0 320.703548,1069.069094"
         style="fill:none;stroke:#FFFF00"
         id="path14-7" /><path
         d="M 320.703549,1175.970278 L 53.450593,1443.223234"
         style="fill:none;stroke:#FFFF00"
         id="path15-6" /><path
         d="M -53.450589,1443.223234 L -320.703549,1175.970278"
         style="fill:none;stroke:#FFFF00"
         id="path16-1" /><path
         d="M -320.703553,1069.069096 L -53.450585,801.816132"
         style="fill:none;stroke:#FFFF00"
         id="path17-8" /><path
         d="M 53.450589,801.816136 L 320.703549,1069.069092"
         style="fill:none;stroke:#FFFF00"
         id="path18-9" /></symbol><marker
       id="DistanceX-2"
       orient="auto"
       refX="0.0"
       refY="0.0"
       style="overflow:visible"><path
         d="M 3,-3 L -3,3 M 0,-5 L  0,5"
         style="stroke:#000000; stroke-width:0.5"
         id="path1-7" /></marker><pattern
       id="Hatch-9"
       patternUnits="userSpaceOnUse"
       width="8"
       height="8"
       x="0"
       y="0"><path
         d="M8 4 l-4,4"
         stroke="#000000"
         stroke-width="0.25"
         linecap="square"
         id="path2-5" /><path
         d="M6 2 l-4,4"
         stroke="#000000"
         stroke-width="0.25"
         linecap="square"
         id="path3-4" /><path
         d="M4 0 l-4,4"
         stroke="#000000"
         stroke-width="0.25"
         linecap="square"
         id="path4-3" /></pattern><symbol
       id="*Model_Space-1" /><symbol
       id="*Paper_Space-2" /><symbol
       id="*Paper_Space0-3" /><symbol
       id="_ARCHTICK-3"><path
         d="M -1.889764,1124.409449 L 1.889764,1120.629921"
         style="fill:none;stroke:#FFFF00;stroke-linecap: round"
         id="path5-4" /></symbol><symbol
       id="_OPEN30-11"><path
         style="fill:none;stroke:#FFFF00;stroke-linecap:round"
         d="M -3.77953 1121.51 L 0 1122.52"
         id="path6-3" /><path
         style="fill:none;stroke:#FFFF00;stroke-linecap:round"
         d="M 0 1122.52 L -3.77953 1123.53"
         id="path7-8" /><path
         style="fill:none;stroke:#FFFF00;stroke-linecap:round"
         d="M 0 1122.52 L -3.77953 1122.52"
         id="path8-7" /></symbol><symbol
       id="_DOT-4"><path
         d="M -0.944882,1122.519685 A 0.944882,0.944882 0.0 0 0 0.944882,1122.519685 A 0.944882,0.944882 0.0 0 0 -0.944882,1122.519685 z"
         style="fill:none;stroke:#FFFF00;stroke-linecap: round"
         id="path9-2" /><path
         style="fill:none;stroke:#FFFF00;stroke-linecap:round"
         d="M -1.88976 1122.52 L -3.77953 1122.52"
         id="path10-7" /></symbol><symbol
       id="*Paper_Space4-7" /><symbol
       id="*Paper_Space5-9" /><symbol
       id="*Paper_Space6-31" /><symbol
       id="*Paper_Space7-9" /><symbol
       id="*Paper_Space8-8" /><symbol
       id="botlayer-6"><path
         d="M -53.450592,1443.223232 A 75.590551,75.590551 -0.000000 0 0 53.450591,1443.223233"
         style="fill:none;stroke:#FFFF00"
         id="path11-5" /><path
         d="M -320.703544,1069.069090 A 75.590551,75.590551 -0.000000 0 0 -320.703548,1175.970276"
         style="fill:none;stroke:#FFFF00"
         id="path12-0" /><path
         d="M 53.450591,801.816137 A 75.590551,75.590551 -0.000000 0 0 -53.450587,801.816133"
         style="fill:none;stroke:#FFFF00"
         id="path13-2" /><path
         d="M 320.703548,1175.970276 A 75.590551,75.590551 -0.000000 0 0 320.703548,1069.069094"
         style="fill:none;stroke:#FFFF00"
         id="path14-8" /><path
         d="M 320.703549,1175.970278 L 53.450593,1443.223234"
         style="fill:none;stroke:#FFFF00"
         id="path15-60" /><path
         d="M -53.450589,1443.223234 L -320.703549,1175.970278"
         style="fill:none;stroke:#FFFF00"
         id="path16-2" /><path
         d="M -320.703553,1069.069096 L -53.450585,801.816132"
         style="fill:none;stroke:#FFFF00"
         id="path17-4" /><path
         d="M 53.450589,801.816136 L 320.703549,1069.069092"
         style="fill:none;stroke:#FFFF00"
         id="path18-8" /></symbol><marker
       id="DistanceX-6"
       orient="auto"
       refX="0.0"
       refY="0.0"
       style="overflow:visible"><path
         d="M 3,-3 L -3,3 M 0,-5 L  0,5"
         style="stroke:#000000; stroke-width:0.5"
         id="path1-5" /></marker><pattern
       id="Hatch-0"
       patternUnits="userSpaceOnUse"
       width="8"
       height="8"
       x="0"
       y="0"><path
         d="M8 4 l-4,4"
         stroke="#000000"
         stroke-width="0.25"
         linecap="square"
         id="path2-9" /><path
         d="M6 2 l-4,4"
         stroke="#000000"
         stroke-width="0.25"
         linecap="square"
         id="path3-0" /><path
         d="M4 0 l-4,4"
         stroke="#000000"
         stroke-width="0.25"
         linecap="square"
         id="path4-0" /></pattern><symbol
       id="*Model_Space-6" /><symbol
       id="*Paper_Space-1" /><symbol
       id="*Paper_Space0-38" /><symbol
       id="*Paper_Space4-9" /><symbol
       id="*Paper_Space5-3" /><symbol
       id="*Paper_Space6-4" /><symbol
       id="*Paper_Space7-4" /><symbol
       id="*Paper_Space8-6" /><marker
       id="DistanceX-5"
       orient="auto"
       refX="0.0"
       refY="0.0"
       style="overflow:visible"><path
         d="M 3,-3 L -3,3 M 0,-5 L  0,5"
         style="stroke:#000000; stroke-width:0.5"
         id="path1-98" /></marker><pattern
       id="Hatch-40"
       patternUnits="userSpaceOnUse"
       width="8"
       height="8"
       x="0"
       y="0"><path
         d="M8 4 l-4,4"
         stroke="#000000"
         stroke-width="0.25"
         linecap="square"
         id="path2-7" /><path
         d="M6 2 l-4,4"
         stroke="#000000"
         stroke-width="0.25"
         linecap="square"
         id="path3-6" /><path
         d="M4 0 l-4,4"
         stroke="#000000"
         stroke-width="0.25"
         linecap="square"
         id="path4-36" /></pattern><symbol
       id="*Model_Space-15" /><symbol
       id="*Paper_Space-4" /><symbol
       id="*Paper_Space0-2" /><symbol
       id="_ARCHTICK-0"><path
         d="M -1.889764,1124.409449 L 1.889764,1120.629921"
         style="fill:none;stroke:#FFFF00;stroke-linecap: round"
         id="path5-9" /></symbol><symbol
       id="_OPEN30-7"><path
         style="fill:none;stroke:#FFFF00;stroke-linecap:round"
         d="M -3.77953 1121.51 L 0 1122.52"
         id="path6-37" /><path
         style="fill:none;stroke:#FFFF00;stroke-linecap:round"
         d="M 0 1122.52 L -3.77953 1123.53"
         id="path7-2" /><path
         style="fill:none;stroke:#FFFF00;stroke-linecap:round"
         d="M 0 1122.52 L -3.77953 1122.52"
         id="path8-6" /></symbol><symbol
       id="_DOT-0"><path
         d="M -0.944882,1122.519685 A 0.944882,0.944882 0.0 0 0 0.944882,1122.519685 A 0.944882,0.944882 0.0 0 0 -0.944882,1122.519685 z"
         style="fill:none;stroke:#FFFF00;stroke-linecap: round"
         id="path9-1" /><path
         style="fill:none;stroke:#FFFF00;stroke-linecap:round"
         d="M -1.88976 1122.52 L -3.77953 1122.52"
         id="path10-6" /></symbol><symbol
       id="*Paper_Space4-5" /><symbol
       id="*Paper_Space5-7" /><symbol
       id="*Paper_Space6-5" /><symbol
       id="*Paper_Space7-41" /><symbol
       id="*Paper_Space8-20" /><symbol
       id="botlayer-0"><path
         d="M -53.450592,1443.223232 A 75.590551,75.590551 -0.000000 0 0 53.450591,1443.223233"
         style="fill:none;stroke:#FFFF00"
         id="path11-1" /><path
         d="M -320.703544,1069.069090 A 75.590551,75.590551 -0.000000 0 0 -320.703548,1175.970276"
         style="fill:none;stroke:#FFFF00"
         id="path12-4" /><path
         d="M 53.450591,801.816137 A 75.590551,75.590551 -0.000000 0 0 -53.450587,801.816133"
         style="fill:none;stroke:#FFFF00"
         id="path13-6" /><path
         d="M 320.703548,1175.970276 A 75.590551,75.590551 -0.000000 0 0 320.703548,1069.069094"
         style="fill:none;stroke:#FFFF00"
         id="path14-0" /><path
         d="M 320.703549,1175.970278 L 53.450593,1443.223234"
         style="fill:none;stroke:#FFFF00"
         id="path15-7" /><path
         d="M -53.450589,1443.223234 L -320.703549,1175.970278"
         style="fill:none;stroke:#FFFF00"
         id="path16-17" /><path
         d="M -320.703553,1069.069096 L -53.450585,801.816132"
         style="fill:none;stroke:#FFFF00"
         id="path17-7" /><path
         d="M 53.450589,801.816136 L 320.703549,1069.069092"
         style="fill:none;stroke:#FFFF00"
         id="path18-7" /></symbol><marker
       id="DistanceX-7"
       orient="auto"
       refX="0.0"
       refY="0.0"
       style="overflow:visible"><path
         d="M 3,-3 L -3,3 M 0,-5 L  0,5"
         style="stroke:#000000; stroke-width:0.5"
         id="path1-3" /></marker><pattern
       id="Hatch-3"
       patternUnits="userSpaceOnUse"
       width="8"
       height="8"
       x="0"
       y="0"><path
         d="M8 4 l-4,4"
         stroke="#000000"
         stroke-width="0.25"
         linecap="square"
         id="path2-59" /><path
         d="M6 2 l-4,4"
         stroke="#000000"
         stroke-width="0.25"
         linecap="square"
         id="path3-9" /><path
         d="M4 0 l-4,4"
         stroke="#000000"
         stroke-width="0.25"
         linecap="square"
         id="path4-8" /></pattern><symbol
       id="*Model_Space-18" /><symbol
       id="*Paper_Space-26" /><symbol
       id="*Paper_Space0-6" /><symbol
       id="*Paper_Space4-0" /><symbol
       id="*Paper_Space5-38" /><symbol
       id="*Paper_Space6-0" /><symbol
       id="*Paper_Space7-1" /><symbol
       id="*Paper_Space8-25" /><marker
       id="DistanceX-1"
       orient="auto"
       refX="0.0"
       refY="0.0"
       style="overflow:visible"><path
         d="M 3,-3 L -3,3 M 0,-5 L  0,5"
         style="stroke:#000000; stroke-width:0.5"
         id="path1-4" /></marker><pattern
       id="Hatch-39"
       patternUnits="userSpaceOnUse"
       width="8"
       height="8"
       x="0"
       y="0"><path
         d="M8 4 l-4,4"
         stroke="#000000"
         stroke-width="0.25"
         linecap="square"
         id="path2-88" /><path
         d="M6 2 l-4,4"
         stroke="#000000"
         stroke-width="0.25"
         linecap="square"
         id="path3-08" /><path
         d="M4 0 l-4,4"
         stroke="#000000"
         stroke-width="0.25"
         linecap="square"
         id="path4-7" /></pattern><symbol
       id="*Model_Space-7" /><symbol
       id="*Paper_Space-8" /><symbol
       id="*Paper_Space0-383" /><symbol
       id="*Paper_Space4-71" /><symbol
       id="*Paper_Space5-0" /><symbol
       id="*Paper_Space6-7" /><symbol
       id="*Paper_Space7-3" /><symbol
       id="*Paper_Space8-4" /></defs><g
     inkscape:label="Layer 1"
     inkscape:groupmode="layer"
     id="layer1"><g
       inkscape:label="Ref"
       id="g65"
       transform="matrix(0.08261398,0,0,0.08261388,49.999998,-42.73577)"
       style="display:none"><path
         d="m 0,555.59055 -539.18164,391.7384 205.94906,633.84605 H 333.23258 L 539.18164,947.32895 Z"
         style="fill:none;stroke:#ff00ff"
         id="path63" /><path
         d="m 604.72441,1122.5197 a 604.72441,604.72441 0 0 0 -1209.44882,0 604.72441,604.72441 0 0 0 1209.44882,0 z"
         style="fill:none;stroke:#ff00ff"
         id="path64" /><path
         d="M -566.92913,517.79528 H 566.92913 V 1651.6535 H -566.92913 Z"
         style="fill:none;stroke:#ff00ff"
         id="path65" /></g><g
       inkscape:label="Background"
       id="g154"
       transform="matrix(0.08261398,0,0,0.08261388,49.999998,-42.73577)"
       style="display:none"><path
         style="fill:none;stroke:#ff0000"
         d="M 435.719,942.039 558.693,891.102"
         id="path70" /><path
         style="fill:none;stroke:#ff0000"
         d="m 524.805,963.322 53.88,-16.345"
         id="path71" /><path
         style="fill:none;stroke:#ff0000"
         d="m 511.347,1020.81 81.758,-16.27"
         id="path72" /><path
         style="fill:none;stroke:#ff0000"
         d="m 447.143,1078.48 154.669,-15.23"
         id="path73" /><path
         style="fill:none;stroke:#ff0000"
         d="m 386.937,1084.41 v 0"
         id="path74" /><path
         style="fill:none;stroke:#ff0000"
         d="m 283.05,1178.82 310.055,61.68"
         id="path75" /><path
         style="fill:none;stroke:#ff0000"
         d="m 301.731,1214.05 276.954,84.01"
         id="path76" /><path
         style="fill:none;stroke:#ff0000"
         d="m 342.317,1264.31 216.376,89.63"
         id="path77" /><path
         style="fill:none;stroke:#ff0000"
         d="m 318.881,1292.97 214.438,114.61"
         id="path78" /><path
         style="fill:none;stroke:#ff0000"
         d="M 285.741,1313.45 502.81,1458.49"
         id="path79" /><path
         style="fill:none;stroke:#ff0000"
         d="m 255.452,1332.16 212.006,173.99"
         id="path80" /><path
         style="fill:none;stroke:#ff0000"
         d="m 227.141,1349.66 200.464,200.46"
         id="path81" /><path
         style="fill:none;stroke:#ff0000"
         d="m 306.464,1581.17 29.503,44.16"
         id="path82" /><path
         style="fill:none;stroke:#ff0000"
         d="m 121.203,1415.13 110.215,266.08"
         id="path83" /><path
         style="fill:none;stroke:#ff0000"
         d="m 0,1470.68 v 256.56"
         id="path84" /><path
         style="fill:none;stroke:#ff0000"
         d="M 93.8839,1432.01 175.542,1701.2"
         id="path85" /><path
         style="fill:none;stroke:#ff0000"
         d="m 65.1004,1449.8 52.8756,265.82"
         id="path86" /><path
         style="fill:none;stroke:#ff0000"
         d="m 33.8054,1465.75 25.468,258.58"
         id="path87" /><path
         style="fill:none;stroke:#ff0000"
         d="m -33.8054,1465.75 -25.468,258.58"
         id="path88" /><path
         style="fill:none;stroke:#ff0000"
         d="m -65.1004,1449.8 -52.8756,265.82"
         id="path89" /><path
         style="fill:none;stroke:#ff0000"
         d="M -93.8839,1432.01 -175.542,1701.2"
         id="path90" /><path
         style="fill:none;stroke:#ff0000"
         d="m -121.203,1415.13 -110.215,266.08"
         id="path91" /><path
         style="fill:none;stroke:#ff0000"
         d="m -306.464,1581.17 -29.503,44.16"
         id="path92" /><path
         style="fill:none;stroke:#ff0000"
         d="m -227.141,1349.66 -200.464,200.46"
         id="path93" /><path
         style="fill:none;stroke:#ff0000"
         d="m -255.452,1332.16 -212.006,173.99"
         id="path94" /><path
         style="fill:none;stroke:#ff0000"
         d="M -285.741,1313.45 -502.81,1458.49"
         id="path95" /><path
         style="fill:none;stroke:#ff0000"
         d="m -318.881,1292.97 -214.438,114.61"
         id="path96" /><path
         style="fill:none;stroke:#ff0000"
         d="m -342.317,1264.31 -216.376,89.63"
         id="path97" /><path
         style="fill:none;stroke:#ff0000"
         d="m -301.731,1214.05 -276.954,84.01"
         id="path98" /><path
         style="fill:none;stroke:#ff0000"
         d="m -283.05,1178.82 -310.055,61.68"
         id="path99" /><path
         style="fill:none;stroke:#ff0000"
         d="M -318.881,952.074 -533.319,837.455"
         id="path100" /><path
         style="fill:none;stroke:#ff0000"
         d="M -285.741,931.594 -502.81,786.553"
         id="path101" /><path
         style="fill:none;stroke:#ff0000"
         d="M -255.452,912.875 -467.458,738.887"
         id="path102" /><path
         style="fill:none;stroke:#ff0000"
         d="m -524.805,963.322 -53.88,-16.345"
         id="path103" /><path
         style="fill:none;stroke:#ff0000"
         d="m -511.347,1020.81 -81.758,-16.27"
         id="path104" /><path
         style="fill:none;stroke:#ff0000"
         d="m -447.143,1078.48 -154.669,-15.23"
         id="path105" /><path
         style="fill:none;stroke:#ff0000"
         d="M -435.719,942.039 -558.693,891.102"
         id="path106" /><path
         style="fill:none;stroke:#ff0000"
         d="M -227.141,895.379 -427.605,694.915"
         id="path107" /><path
         style="fill:none;stroke:#ff0000"
         d="M -200.116,878.677 -383.633,655.061"
         id="path108" /><path
         style="fill:none;stroke:#ff0000"
         d="M -121.203,829.909 -231.418,563.827"
         id="path109" /><path
         style="fill:none;stroke:#ff0000"
         d="M -173.798,862.413 -335.967,619.71"
         id="path110" /><path
         style="fill:none;stroke:#ff0000"
         d="M -147.663,846.261 -285.065,589.2"
         id="path111" /><path
         style="fill:none;stroke:#ff0000"
         d="M -93.8839,813.026 -175.542,543.835"
         id="path112" /><path
         style="fill:none;stroke:#ff0000"
         d="M -65.1004,795.238 -117.976,529.415"
         id="path113" /><path
         style="fill:none;stroke:#ff0000"
         d="m 0,573.435 v -55.64"
         id="path114" /><path
         style="fill:none;stroke:#ff0000"
         d="M 65.1004,795.238 117.976,529.415"
         id="path115" /><path
         style="fill:none;stroke:#ff0000"
         d="M 93.8839,813.026 175.542,543.835"
         id="path116" /><path
         style="fill:none;stroke:#ff0000"
         d="M 121.203,829.909 231.418,563.827"
         id="path117" /><path
         style="fill:none;stroke:#ff0000"
         d="M 147.663,846.261 285.065,589.2"
         id="path118" /><path
         style="fill:none;stroke:#ff0000"
         d="M 173.798,862.413 335.967,619.71"
         id="path119" /><path
         style="fill:none;stroke:#ff0000"
         d="M 200.116,878.677 383.633,655.061"
         id="path120" /><path
         style="fill:none;stroke:#ff0000"
         d="M 255.452,912.875 467.458,738.887"
         id="path121" /><path
         style="fill:none;stroke:#ff0000"
         d="M 285.741,931.594 502.81,786.553"
         id="path122" /><path
         style="fill:none;stroke:#ff0000"
         d="M 318.881,952.074 533.319,837.455"
         id="path123" /><path
         style="fill:none;stroke:#ff0000"
         d="M 227.141,895.379 427.605,694.915"
         id="path124" /><path
         style="fill:none;stroke:#ff0000"
         d="m 430.722,1036.84 v 0"
         id="path125" /><path
         style="fill:none;stroke:#ff0000"
         d="m 392.466,959.955 v 0"
         id="path126" /><path
         style="fill:none;stroke:#ff0000"
         d="m -52.0353,594.196 -7.2381,-73.489"
         id="path127" /><path
         style="fill:none;stroke:#ff0000"
         d="m 52.0353,594.196 7.2381,-73.489"
         id="path128" /><path
         style="fill:none;stroke:#ff0000"
         d="m -147.663,1398.78 -59.847,111.96"
         id="path129" /><path
         style="fill:none;stroke:#ff0000"
         d="m -245.156,1581.17 -39.909,74.67"
         id="path130" /><path
         style="fill:none;stroke:#ff0000"
         d="m 147.663,1398.78 59.847,111.96"
         id="path131" /><path
         style="fill:none;stroke:#ff0000"
         d="m 245.156,1581.17 39.909,74.67"
         id="path132" /><path
         style="fill:none;stroke:#ff0000"
         d="M -404.685,1122.52 H -604.724"
         id="path137" /><path
         style="fill:none;stroke:#ff0000"
         d="m -283.05,1066.22 -119.984,-23.87"
         id="path138" /><path
         style="fill:none;stroke:#ff0000"
         d="m -322.658,1090.74 -30.796,-3.03"
         id="path139" /><path
         style="fill:none;stroke:#ff0000"
         d="m -437.274,989.874 -31.489,-9.552"
         id="path140" /><path
         style="fill:none;stroke:#ff0000"
         d="m -342.317,980.727 -32.965,-13.654"
         id="path141" /><path
         style="fill:none;stroke:#ff0000"
         d="m -301.731,1030.99 -79.501,-24.12"
         id="path142" /><path
         style="fill:none;stroke:#ff0000"
         d="m -329.424,1154.97 -272.388,26.82"
         id="path143" /><path
         style="fill:none;stroke:#ff0000"
         d="m 322.658,1090.74 30.796,-3.03"
         id="path144" /><path
         style="fill:none;stroke:#ff0000"
         d="M 404.685,1122.52 H 604.724"
         id="path145" /><path
         style="fill:none;stroke:#ff0000"
         d="m 329.423,1154.97 272.389,26.82"
         id="path146" /><path
         style="fill:none;stroke:#ff0000"
         d="m 283.05,1066.22 119.984,-23.87"
         id="path147" /><path
         style="fill:none;stroke:#ff0000"
         d="m 342.317,980.727 32.965,-13.654"
         id="path148" /><path
         style="fill:none;stroke:#ff0000"
         d="m 301.731,1030.99 79.501,-24.12"
         id="path149" /><path
         style="fill:none;stroke:#ff0000"
         d="m 437.274,989.874 31.489,-9.552"
         id="path150" /><path
         style="fill:none;stroke:#ff0000"
         d="m -228.175,1400.55 -155.458,189.43"
         id="path151" /><path
         style="fill:none;stroke:#ff0000"
         d="m 228.175,1400.55 155.458,189.43"
         id="path152" /><path
         style="fill:none;stroke:#ff0000"
         d="m -33.8054,779.288 -6.5334,-66.335"
         id="path153" /><path
         style="fill:none;stroke:#ff0000"
         d="m 33.8054,779.288 6.5334,-66.335"
         id="path154" /><path
         id="path134"
         style="display:inline;fill:none;stroke:#ff0000"
         d="M 153.625,1122.52 53.450594,1060.6108 c -29.519952,-18.2425 -77.381238,-18.2425 -106.901189,0 L -153.625,1122.52 l 100.174404,61.9089 c 29.51995,18.2421 77.381241,18.2421 106.901191,0 z m -134.727362,-3e-4 a 18.897638,18.897638 0 0 0 -37.795276,0 18.897638,18.897638 0 0 0 37.795276,0 z m 37.795275,0 a 56.692913,56.692913 0 0 0 -113.385826,0 56.692913,56.692913 0 0 0 113.385826,0 z"
         inkscape:label="Eye"
         transform="translate(-1.2608843e-6)" /></g><path
       style="display:inline;fill:#404040;stroke:#ffffff;fill-opacity:1;stroke-opacity:1;stroke-width:6.05224809;stroke-dasharray:none"
       d="m -206.11691,1581.1725 c 10.43695,0 18.89771,-8.4582 18.89773,-18.8951 1e-5,-20.5143 -8.33775,-40.1476 -23.09958,-54.3952 L -162.61,1389.54 l 109.159402,67.4606 c 29.519949,18.2439 77.381239,18.2439 106.901192,0 L 162.61,1389.54 l 47.70876,118.3422 c -14.76183,14.2476 -23.09959,33.8809 -23.09958,54.3952 2e-5,10.4369 8.46078,18.8976 18.89773,18.8951 h 113.38591 c 10.43669,0 18.89744,-8.4582 18.89746,-18.8951 0,-41.7125 -33.78838,-75.541 -75.50105,-75.5889 L 211.544,1359.3 320.70377,1291.8395 c 29.51968,-18.2439 29.51968,-47.8222 0,-66.0675 L 53.450597,1060.6108 c -29.519948,-18.2425 -77.381234,-18.2425 -106.901188,0 L -320.70378,1225.772 c -29.51968,18.2453 -29.51968,47.8236 0,66.0675 l 109.15978,67.4605 -51.35523,127.3885 c -41.71267,0.048 -75.50105,33.8764 -75.50105,75.5889 2e-5,10.4369 8.46077,18.8976 18.89745,18.8951 z"
       id="path45"
       sodipodi:nodetypes="ccccccccccccccccccccccccc"
       inkscape:label="Bottom"
       transform="matrix(0.08261398,0,0,0.08261388,49.999998,-42.73577)" /><path
       style="display:inline;fill:#808080;stroke:#ffffff;fill-opacity:1;stroke-opacity:1;stroke-width:6.05224809;stroke-dasharray:none"
       d="m 319.11923,1156.5306 c 63.04075,-7.738 117.46366,-47.835 143.53489,-105.7512 52.09962,-8.6168 79.53257,-66.64032 53.12879,-112.37283 -7.82895,-13.5551 -25.16333,-18.19831 -38.71968,-10.37154 -13.55636,7.82676 -18.2024,25.16038 -10.37781,38.71801 7.27383,12.59863 -1.81855,28.34621 -16.36583,28.34622 -14.54727,0 -23.63966,-15.74757 -16.36584,-28.34621 7.82666,-13.55782 3.18112,-30.89332 -10.37628,-38.72069 -13.5574,-7.82736 -30.89315,-3.18276 -38.7212,10.37426 -19.36149,33.5351 -10.24961,76.27848 21.10495,99.00208 -16.326,29.0683 -43.5885,50.4095 -75.72628,59.2789 -2.78155,-2.5901 -5.97451,-5.0022 -9.53117,-7.199 L 53.450595,924.32495 c -29.51995,-18.24339 -77.381236,-18.24339 -106.901189,0 L -320.70377,1089.4886 c -3.55668,2.1968 -6.74966,4.6089 -9.53123,7.199 -32.13777,-8.8694 -59.40027,-30.2106 -75.72627,-59.2789 31.35455,-22.7236 40.46646,-65.46692 21.10498,-99.00201 -7.82965,-13.5536 -25.16294,-18.19572 -38.71847,-10.36943 -13.55552,7.82629 -18.20197,25.15842 -10.37903,38.71589 7.27382,12.59863 -1.81856,28.34621 -16.36583,28.34621 -14.54728,0 -23.63966,-15.74758 -16.36584,-28.34621 7.83239,-13.55834 3.18826,-30.89902 -10.37202,-38.72805 -13.56027,-7.82903 -30.8998,-3.18063 -38.72548,10.38159 -26.40368,45.73247 1.02923,103.75581 53.12877,112.37271 26.07125,57.9163 80.49427,98.0134 143.53504,105.7512 l 265.668554,164.1817 c 29.51995,18.2455 77.381241,18.2455 106.901191,0 z"
       id="path24"
       sodipodi:nodetypes="cccscscsccccccccccscscscccccc"
       inkscape:label="Middle"
       transform="matrix(0.08261398,0,0,0.08261388,49.999998,-42.73577)" /><path
       style="display:inline;fill:#bfbfbf;fill-opacity:1;stroke:#ffffff;stroke-opacity:1;stroke-width:6.05224809;stroke-dasharray:none"
       d="M 320.70377,953.20024 53.450595,788.03808 c -7.168621,-4.43013 -15.706,-7.92392 -25.104138,-10.27339 V 719.09993 C 61.886459,705.53233 81.109899,670.09967 74.198221,634.59067 67.286633,599.08214 36.179125,573.45868 0,573.45868 c -36.179125,0 -67.286633,25.62346 -74.198221,61.13199 -6.911678,35.509 12.311762,70.94166 45.851764,84.50926 v 58.66476 c -9.398136,2.34947 -17.935513,5.84325 -25.104137,10.27339 L -320.70377,953.20024 c -29.51971,18.24356 -29.51971,47.82186 0,66.06746 l 267.253178,165.1612 c 29.519954,18.2421 77.381244,18.2421 106.901191,0 L 320.70377,1019.2677 c 29.51971,-18.2456 29.51971,-47.82389 0,-66.06746 z"
       id="path7-1"
       sodipodi:nodetypes="ccccsssccccccccc"
       inkscape:label="Top"
       transform="matrix(0.08261398,0,0,0.08261388,49.999998,-42.73577)" /></g></svg>
