<?xml version="1.0" encoding="UTF-8" standalone="no"?>
<!-- Created with Inkscape (http://www.inkscape.org/) -->

<svg
   width="100mm"
   height="100mm"
   viewBox="0 0 100 100"
   version="1.1"
   id="svg1"
   xml:space="preserve"
   sodipodi:docname="actionbot_27.svg"
   inkscape:version="1.4 (86a8ad7, 2024-10-11)"
   xmlns:inkscape="http://www.inkscape.org/namespaces/inkscape"
   xmlns:sodipodi="http://sodipodi.sourceforge.net/DTD/sodipodi-0.dtd"
   xmlns="http://www.w3.org/2000/svg"
   xmlns:svg="http://www.w3.org/2000/svg"><sodipodi:namedview
     id="namedview1"
     pagecolor="#808080"
     bordercolor="#000000"
     borderopacity="0.25"
     inkscape:showpageshadow="2"
     inkscape:pageopacity="0.0"
     inkscape:pagecheckerboard="0"
     inkscape:deskcolor="#d1d1d1"
     inkscape:document-units="mm"
     inkscape:zoom="2.7793849"
     inkscape:cx="182.77425"
     inkscape:cy="187.27165"
     inkscape:window-width="2560"
     inkscape:window-height="1417"
     inkscape:window-x="1432"
     inkscape:window-y="1432"
     inkscape:window-maximized="1"
     inkscape:current-layer="g1" /><defs
     id="defs1"><marker
       id="DistanceX"
       orient="auto"
       refX="0.0"
       refY="0.0"
       style="overflow:visible"><path
         d="M 3,-3 L -3,3 M 0,-5 L  0,5"
         style="stroke:#000000; stroke-width:0.5"
         id="path1" /></marker><pattern
       id="Hatch"
       patternUnits="userSpaceOnUse"
       width="8"
       height="8"
       x="0"
       y="0"><path
         d="M8 4 l-4,4"
         stroke="#000000"
         stroke-width="0.25"
         linecap="square"
         id="path2" /><path
         d="M6 2 l-4,4"
         stroke="#000000"
         stroke-width="0.25"
         linecap="square"
         id="path3" /><path
         d="M4 0 l-4,4"
         stroke="#000000"
         stroke-width="0.25"
         linecap="square"
         id="path4" /></pattern><symbol
       id="*Model_Space" /><symbol
       id="*Paper_Space" /><symbol
       id="*Paper_Space0" /><symbol
       id="*Paper_Space4" /><symbol
       id="*Paper_Space5" /><symbol
       id="*Paper_Space6" /><symbol
       id="*Paper_Space7" /><symbol
       id="*Paper_Space8" /></defs><g
     inkscape:label="Layer 1"
     inkscape:groupmode="layer"
     id="layer1"><g
       id="g1"
       transform="matrix(0.08261398,0,0,0.08261398,50,-42.735847)"><g
         inkscape:label="3 Middle"
         id="g26"
         style="display:inline;stroke:#ffffff;stroke-opacity:1;stroke-width:6.05224443;stroke-dasharray:none;fill:#ffffff;fill-opacity:1"
         transform="translate(6.556598e-6)"><path
           style="fill:#ffffff;stroke:#ffffff;stroke-opacity:1;stroke-width:6.05224443;stroke-dasharray:none;fill-opacity:1"
           d="m 319.11923,1156.5306 c 63.04075,-7.738 117.46366,-47.835 143.53489,-105.7512 52.09962,-8.6168 79.53257,-66.64032 53.12879,-112.37283 -7.82895,-13.5551 -25.16333,-18.19831 -38.71968,-10.37154 -13.55636,7.82676 -18.2024,25.16038 -10.37781,38.71801 7.27383,12.59863 -1.81855,28.34621 -16.36583,28.34622 -14.54727,0 -23.63966,-15.74757 -16.36584,-28.34621 7.82666,-13.55782 3.18112,-30.89332 -10.37628,-38.72069 -13.5574,-7.82736 -30.89315,-3.18276 -38.7212,10.37426 -19.36149,33.5351 -10.24961,76.27848 21.10495,99.00208 -16.326,29.0683 -43.5885,50.4095 -75.72628,59.2789 -2.78155,-2.5901 -5.97451,-5.0022 -9.53117,-7.199 L 53.450595,924.32495 c -29.51995,-18.24339 -77.381236,-18.24339 -106.901189,0 L -320.70377,1089.4886 c -3.55668,2.1968 -6.74966,4.6089 -9.53123,7.199 -32.13777,-8.8694 -59.40027,-30.2106 -75.72627,-59.2789 31.35455,-22.7236 40.46646,-65.46692 21.10498,-99.00201 -7.82965,-13.5536 -25.16294,-18.19572 -38.71847,-10.36943 -13.55552,7.82629 -18.20197,25.15842 -10.37903,38.71589 7.27382,12.59863 -1.81856,28.34621 -16.36583,28.34621 -14.54728,0 -23.63966,-15.74758 -16.36584,-28.34621 7.83239,-13.55834 3.18826,-30.89902 -10.37202,-38.72805 -13.56027,-7.82903 -30.8998,-3.18063 -38.72548,10.38159 -26.40368,45.73247 1.02923,103.75581 53.12877,112.37271 26.07125,57.9163 80.49427,98.0134 143.53504,105.7512 l 265.668554,164.1817 c 29.51995,18.2455 77.381241,18.2455 106.901191,0 z"
           id="path16"
           sodipodi:nodetypes="cccscscsccccccccccscscscccccc" /></g></g></g></svg>
