<svg width="250" height="250" version="1.1" xmlns="http://www.w3.org/2000/svg">
    <!-- LOGO -->
    <!-- boundary -->
    <rect x="0" y="0" width="250" height="250" fill="transparent"/>
    <!-- graphic -->
    <use href="#logo" x="25" y="20" transform-origin="125 125">
        <animateTransform id="lrot" attributeName="transform" attributeType="XML" type="rotate" values="0;-1;-2;4;0" dur="500ms" begin="60500ms;lrot.end+60500ms"/>
    </use>

    <!-- STYLE -->
    <style>
        .bg { fill: rgb(100, 65, 165); } /* #6441a5 */
        .fg { fill: rgb(219, 165, 7); }  /* #dba507 */
    </style>

    <!-- ELEMENTS -->
    <defs>
        <!-- LOGO -->
        <g id="logo">
            <use href="#face" x="0" y="40"/>
            <use href="#crown" x="0" y="0"/>
        </g>

        <!-- CROWN -->
        <g id="crown" transform-origin="100 100">
            <animateTransform id="crot" attributeName="transform" attributeType="XML" type="rotate" values="0;-1;-2;-4;0" dur="1s" begin="60s;crot.end+60s"/>
            <animate id="cpos" attributeName="cy" values="0;10;20;40;0" dur="1000ms" begin="1s;cpos.end+1s"/>
            <!-- background -->
            <path d="
            M 0 30
            A 56.667 56.667,0,0 0,50 0
            A 56.667 56.667,0,0 0,150 0
            A 56.667 56.667,0,0 0,200 30
            L 200 40
            L 0 40
            Z" class="bg"/>
            <use href="#tip" x="50" class="bg"/>
            <use href="#tip" x="150" class="bg"/>
            <!-- foreground -->
            <path d="
            M 0 0
            A 56.667 56.667,0,0 0,100 0
            A 56.667 56.667,0,0 0,200 0
            L 200 60
            L 0 60
            Z" class="fg"/>
            <use href="#tip" x="0" class="fg"/>
            <use href="#tip" x="100" class="fg"/>
            <use href="#tip" x="200" class="fg"/>
            <!-- jewel -->
            <circle cx="100" cy="40" r="10" class="bg">
                <animate id="j" attributeName="fill-opacity" values="1;0;1;0;1;0;1;0;1;0;1" dur="1s" begin="42s;j.end+42s"/>
            </circle>
        </g>
        <circle id="tip" r="10"/>

        <!-- FACE -->
        <g id="face">
            <!-- background -->
            <path d="
            M 0 20
            A 20 20,0,0 1,20 0
            L 180 0
            A 20 20,0,0 1,200 20

            L 200 140
            A 40 40,0,0 1,160 180
            L 40 180
            A 40 40,0,0 1,0 140
            Z" class="bg"/>
            <use href="#eye" x="50" y="70"/>
            <use href="#eye" x="150" y="70"/>
            <use href="#mouth" x="20" y="120"/>
        </g>
        <g id="eye">
            <circle cx="0" cy="0" r="30" class="fg"/>
            <circle cx="0" cy="0" r="20" class="bg"/>
            <circle cx="0" cy="0" r="10" class="fg">
                <animate id="op" attributeName="fill-opacity" values="1;0;0;1" dur="100ms" begin="24s;op.end+24s"/>
                <animate id="pos" attributeName="cy" values="0;5;5;5;5;5;5;0" dur="750ms" begin="30s;pos.end+30s"/>
            </circle>
        </g>
        <g id="mouth">
            <!-- lips -->
            <path d="M20 0 L140 0 A20 20,0,0 1,140 40 L20 40 A20 20,0,0 1,20 0 Z" class="fg"/>
            <!-- teeth -->
            <path d="M20 10 L30 10 L30 30 L20 30 A10 10,0,0 1,20 10 Z" class="bg">
                <animate id="t1" attributeName="fill-opacity" values="1;0;0;0;1" dur="100ms" begin="36s;t1.end+36s"/>
            </path>
            <use href="#tooth" x="40" y="10">
                <animate id="t2" attributeName="fill-opacity" values="1;0;0;0;1" dur="100ms" begin="36050ms;t2.end+36s"/>
            </use>
            <use href="#tooth" x="70" y="10">
                <animate id="t3" attributeName="fill-opacity" values="1;0;0;0;1" dur="100ms" begin="36100ms;t3.end+36s"/>
            </use>
            <use href="#tooth" x="100" y="10">
                <animate id="t4" attributeName="fill-opacity" values="1;0;0;0;1" dur="100ms" begin="36150ms;t4.end+36s"/>
            </use>
            <path d="M130 10 L140 10 A10 10,0,0 1,140 30 L130 30 Z" class="bg">
                <animate id="t5" attributeName="fill-opacity" values="1;0;0;0;1" dur="100ms" begin="36200ms;t5.end+36s"/>
            </path>
        </g>
        <rect id="tooth" x="0" y="0" width="20" height="20" class="bg"/>
    </defs>
</svg>