<svg width="250" height="250" version="1.1" xmlns="http://www.w3.org/2000/svg">
    <!-- LOGO -->
    <!-- boundary -->
    <rect x="0" y="0" width="250" height="250" fill="transparent"/>
    <!-- graphic -->
    <use href="#logo" x="25" y="20"/>

    <!-- STYLE -->
    <style>
        .bg { fill: rgb(191, 0, 255); }
        .fg { fill: rgb(255, 191, 0); }
    </style>

    <!-- ELEMENTS -->
    <defs>
        <!-- LOGO -->
        <g id="logo">
            <use href="#crown" x="0" y="0"/>
            <use href="#face" x="0" y="60"/>
        </g>

        <!-- CROWN -->
        <g id="crown">
            <!-- background -->
            <path d="M0 30 A56.667 56.667,0,0 0,50 0 A56.667 56.667,0,0 0,150 0 A56.667 56.667,0,0 0,200 30 L200 40 L0 40 Z" class="bg"/>
            <use href="#tip" x="50" class="bg"/>
            <use href="#tip" x="150" class="bg"/>
            <!-- foreground -->
            <path d="M0 0 A56.667 56.667,0,0 0,100 0 A56.667 56.667,0,0 0,200 0 L200 60 L0 60 Z" class="fg"/>
            <use href="#tip" x="0" class="fg"/>
            <use href="#tip" x="100" class="fg"/>
            <use href="#tip" x="200" class="fg"/>
            <!-- jewel -->
            <circle cx="100" cy="40" r="10" class="bg">
                <animate id="j" attributeName="fill-opacity" values="1;0;1;0;1;0;1;0;1;0;1" dur="1s" begin="42s;j.end+42s"/>
            </circle>
        </g>
        <circle id="tip" r="10"/>

        <!-- FACE -->
        <g id="face">
            <!-- background -->
            <path d="M0 0 L200 0 L200 120 A40 40,0,0 1,160 160 L40 160 A40 40,0,0 1,0 120 Z" class="bg"/>
            <use href="#eye" x="50" y="50"/>
            <use href="#eye" x="150" y="50"/>
            <use href="#mouth" x="20" y="100"/>
        </g>
        <g id="eye">
            <circle cx="0" cy="0" r="30" class="fg"/>
            <circle cx="0" cy="0" r="20" class="bg"/>
            <circle cx="0" cy="0" r="10" class="fg">
                <animate id="op" attributeName="fill-opacity" values="1;0;0;1" dur="100ms" begin="24s;op.end+24s"/>
                <animate id="pos" attributeName="cy" values="0;5;5;5;5;5;5;0" dur="750ms" begin="30s;pos.end+30s"/>
            </circle>
        </g>
        <g id="mouth">
            <!-- lips -->
            <path d="M20 0 L140 0 A20 20,0,0 1,140 40 L20 40 A20 20,0,0 1,20 0 Z" class="fg"/>
            <!-- teeth -->
            <path d="M20 10 L30 10 L30 30 L20 30 A10 10,0,0 1,20 10 Z" class="bg">
                <animate id="t1" attributeName="fill-opacity" values="1;0;0;0;1" dur="100ms" begin="36s;t1.end+36s"/>
            </path>
            <use href="#tooth" x="40" y="10">
                <animate id="t2" attributeName="fill-opacity" values="1;0;0;0;1" dur="100ms" begin="36050ms;t2.end+36s"/>
            </use>
            <use href="#tooth" x="70" y="10">
                <animate id="t3" attributeName="fill-opacity" values="1;0;0;0;1" dur="100ms" begin="36100ms;t3.end+36s"/>
            </use>
            <use href="#tooth" x="100" y="10">
                <animate id="t4" attributeName="fill-opacity" values="1;0;0;0;1" dur="100ms" begin="36150ms;t4.end+36s"/>
            </use>
            <path d="M130 10 L140 10 A10 10,0,0 1,140 30 L130 30 Z" class="bg">
                <animate id="t5" attributeName="fill-opacity" values="1;0;0;0;1" dur="100ms" begin="36200ms;t5.end+36s"/>
            </path>
        </g>
        <rect id="tooth" x="0" y="0" width="20" height="20" class="bg"/>
    </defs>
</svg>