<svg width="250" height="250" version="1.1" xmlns="http://www.w3.org/2000/svg">
  <!-- STYLE -->
  <style>
    .purple { fill: rgb(191, 0, 255); }
	.orange { fill: rgb(255, 191, 0); }
  </style>
  
  <!-- BOUNDARY -->
  <rect x="0" y="0" width="250" height="250" fill="transparent" />

  <!-- ELEMENTS -->
  <defs> 
   <!-- CROWN -->
   <circle id="tip" r="10" />
   <g id="tips">
	  <use href="#tip" x="0" class="orange" />
	  <use href="#tip" x="50" class="purple" />
	  <use href="#tip" x="100" class="orange" />
	  <use href="#tip" x="150" class="purple" />
	  <use href="#tip" x="200" class="orange" />
   </g>
   
   <!-- MOUTH -->
   <rect id="tooth" x="0" y="0" width="20" height="20" class="purple" />
   <g id="mouth">
    <path d="M20 0 L140 0 A20 20,0,0 1,140 40 L20 40 A20 20,0,0 1,20 0 Z" class="orange"/>
	<!-- TEETH -->
	<path d="M20 10 L30 10 L30 30 L20 30 A10 10,0,0 1,20 10 Z" class="purple">
		<animate id="t1" attributeName="fill-opacity" values="1;0;0;0;1" dur="100ms" begin="36s;t1.end+36s" />
	</path>
    <use href="#tooth" x="40" y="10">
		<animate id="t2" attributeName="fill-opacity" values="1;0;0;0;1" dur="100ms" begin="36050ms;t2.end+36s" />
	</use>
    <use href="#tooth" x="70" y="10">
		<animate id="t3" attributeName="fill-opacity" values="1;0;0;0;1" dur="100ms" begin="36100ms;t3.end+36s" />
	</use>
    <use href="#tooth" x="100" y="10">
		<animate id="t4" attributeName="fill-opacity" values="1;0;0;0;1" dur="100ms" begin="36150ms;t4.end+36s" />
	</use>
    <path d="M130 10 L140 10 A10 10,0,0 1,140 30 L130 30 Z" class="purple">
		<animate id="t5" attributeName="fill-opacity" values="1;0;0;0;1" dur="100ms" begin="36200ms;t5.end+36s" />
	</path>
   </g>
   
   <!-- EYE -->
   <g id="eye">
    <circle cx="0" cy="0" r="30" class="orange" />
    <circle cx="0" cy="0" r="20" class="purple" />
	<circle cx="0" cy="0" r="10" class="orange">
	 <animate id="op" attributeName="fill-opacity" values="1;0;0;1" dur="100ms" begin="24s;op.end+24s" />
	 <animate id="pos" attributeName="cy" values="0;5;5;5;5;5;5;0" dur="750ms" begin="30s;pos.end+30s" />
	</circle>
   </g>
  </defs>
  
  <!-- CROWN -->
  <!-- background -->
  <path d="M25 50 A56.667 56.667,0,0 0,75 20 A56.667 56.667,0,0 0,175 20 A56.667 56.667,0,0 0,225 50 L225 60 L25 60 Z" class="purple" />
  <!-- foreground -->
  <path d="M25 20 A56.667 56.667,0,0 0,125 20 A56.667 56.667,0,0 0,225 20 L225 80 L25 80 Z" class="orange" />
  <!-- tips -->
  <use href="#tips" x="25" y="20" /> 
  <!-- jewel -->
  <circle cx="125" cy="60" r="10" class="purple">
	<animate id="j" attributeName="fill-opacity" values="1;0;1;0;1;0;1;0;1;0;1" dur="1s" begin="42s;j.end+42s" />
  </circle>
  
  <!-- FACE -->
  <path d="M25 80 L225 80 L225 200 A40 40, 0, 0 1, 185 240 L65 240 A40 40,0,0 1,25 200 Z" class="purple" />
  <use href="#eye" x="75" y="130" />
  <use href="#eye" x="175" y="130" />
  <use href="#mouth" x="45" y="180" />
</svg>